<?xml version="1.0" encoding="utf-8"?>
<svg version="1.1" id="bg-astro-footer" xmlns="http://www.w3.org/2000/svg" xmlns:xlink="http://www.w3.org/1999/xlink" x="0px" y="0px"
	 viewBox="0 0 1334 680" style="enable-background:new 0 0 1334 680;" xml:space="preserve">
	<g class="astro-footer">
		<linearGradient id="astro-deco-1" gradientUnits="userSpaceOnUse" x1="283.574" y1="480.8864" x2="283.574" y2="400.8864">
			<stop  offset="0" style="stop-color:#E51F58"/>
			<stop  offset="0.1669" style="stop-color:#DF1F58"/>
			<stop  offset="0.3871" style="stop-color:#E11F58"/>
			<stop  offset="1" style="stop-color:#4F2453"/>
		</linearGradient>
		<circle fill="url(#astro-deco-1)" cx="283.6" cy="440.9" r="40"/>
		
		<linearGradient id="astro-deco-2" gradientUnits="userSpaceOnUse" x1="189.3116" y1="610.6631" x2="189.3116" y2="540.6747" gradientTransform="matrix(0.9848 0.1736 -0.1736 0.9848 145.1481 -168.6858)">
			<stop  offset="0" style="stop-color:#E51F58"/>
			<stop  offset="0.1669" style="stop-color:#DF1F58"/>
			<stop  offset="0.3871" style="stop-color:#E11F58"/>
			<stop  offset="1" style="stop-color:#4F2453"/>
		</linearGradient>
		<circle fill="url(#astro-deco-2)" cx="231.6" cy="431.1" r="35"/>

		<linearGradient id="astro-deco-3" gradientUnits="userSpaceOnUse" x1="47.6502" y1="489.0375" x2="47.6502" y2="409.0375">
			<stop  offset="0" style="stop-color:#E51F58"/>
			<stop  offset="0.1669" style="stop-color:#DF1F58"/>
			<stop  offset="0.3871" style="stop-color:#E11F58"/>
			<stop  offset="1" style="stop-color:#4F2453"/>
		</linearGradient>
		<circle fill="url(#astro-deco-3)" cx="47.7" cy="449" r="40"/>
		
			<linearGradient id="astro-deco-4" gradientUnits="userSpaceOnUse" x1="200.9739" y1="313.2799" x2="200.9739" y2="268.2874" gradientTransform="matrix(0.9848 -0.1736 0.1736 0.9848 -113.376 169.4734)">
			<stop  offset="0" style="stop-color:#E51F58"/>
			<stop  offset="0.1669" style="stop-color:#DF1F58"/>
			<stop  offset="0.3871" style="stop-color:#E11F58"/>
			<stop  offset="1" style="stop-color:#4F2453"/>
		</linearGradient>
		<circle fill="url(#astro-deco-4)" cx="135" cy="420.9" r="22.5"/>
		
			<linearGradient id="astro-deco-5" gradientUnits="userSpaceOnUse" x1="323.776" y1="503.7671" x2="323.776" y2="458.7746" gradientTransform="matrix(1 0 0 1 5.8888 -32.8718)">
			<stop  offset="0" style="stop-color:#E51F58"/>
			<stop  offset="0.1669" style="stop-color:#DF1F58"/>
			<stop  offset="0.3871" style="stop-color:#E11F58"/>
			<stop  offset="1" style="stop-color:#4F2453"/>
		</linearGradient>
		<circle fill="url(#astro-deco-5)" cx="329.7" cy="448.4" r="22.5"/>
		
		<linearGradient id="astro-deco-6" gradientUnits="userSpaceOnUse" x1="164.6381" y1="329.3702" x2="164.6381" y2="277.3789" gradientTransform="matrix(0.9848 -0.1736 0.1736 0.9848 -116.6003 163.8905)">
			<stop  offset="0" style="stop-color:#E51F58"/>
			<stop  offset="0.1669" style="stop-color:#DF1F58"/>
			<stop  offset="0.3871" style="stop-color:#E11F58"/>
			<stop  offset="1" style="stop-color:#4F2453"/>
		</linearGradient>
		<circle fill="url(#astro-deco-6)" cx="98.2" cy="434.1" r="26"/>

		<circle fill="#4F2453" cx="268" cy="380.2" r="3.5"/>
		<circle fill="#7D2062" cx="63.3" cy="364.9" r="7.5"/>
		<circle fill="#B2125B" cx="218.8" cy="364.8" r="7.5"/>
		<ellipse fill="#E61F58" cx="225.6" cy="320.8" rx="5" ry="5"/>
		<path fill="#E61F58" d="M141.8,351.1c0,1.9-1.6,3.5-3.5,3.5s-3.5-1.6-3.5-3.5c0-1.9,1.6-3.5,3.5-3.5S141.8,349.2,141.8,351.1z"/>
		<path fill="#4F2453" d="M106.7,381.8c0,2.5-2,4.5-4.5,4.5c-2.5,0-4.5-2-4.5-4.5c0-2.5,2-4.5,4.5-4.5C104.6,377.3,106.7,379.3,106.7,381.8z"/>
		<path fill="#7D2062" d="M300.9,354.6c0,2.5-2,4.5-4.5,4.5c-2.5,0-4.5-2-4.5-4.5c0-2.5,2-4.5,4.5-4.5C298.9,350.1,300.9,352.1,300.9,354.6z"/>
		<path fill="#E61F58" d="M115.1,323.7c0,1.7-1.3,3-3,3c-1.7,0-3-1.3-3-3c0-1.7,1.3-3,3-3C113.7,320.7,115.1,322,115.1,323.7z"/>
		<path fill="#E61F58" d="M260.3,345.5c0,1.1-0.9,2-2,2c-1.1,0-2-0.9-2-2c0-1.1,0.9-2,2-2C259.4,343.5,260.3,344.4,260.3,345.5z"/>

		<linearGradient id="astro-footer__base" gradientUnits="userSpaceOnUse" x1="667" y1="679.999" x2="667" y2="225.3579">
			<stop  offset="0.4885" style="stop-color:#E51F58"/>
			<stop  offset="0.6119" style="stop-color:#B22156"/>
			<stop  offset="0.7336" style="stop-color:#872255"/>
			<stop  offset="0.8426" style="stop-color:#682354"/>
			<stop  offset="0.9351" style="stop-color:#562453"/>
			<stop  offset="1" style="stop-color:#4F2453"/>
		</linearGradient>
		<path fill="url(#astro-footer__base)" d="M875,411c-110.7,0-245,37.2-464.5,37.2c-70.9,0-194.9-17.3-216.5-61c-11.3-23-7.6-53.8-2.3-78.6c1-4.6,2.4-9.1,3.8-13.6c0.1-0.2,0.1-0.3,0.1-0.5c0-0.2,0.1-0.3,0.1-0.5c0.1-0.3,0.1-0.6,0.2-0.9c0-0.1,0.1-0.2,0.1-0.4c0.1-0.4,0.1-0.9,0.2-1.3c0-0.1,0-0.2,0-0.3c0-0.4,0.1-0.7,0.1-1.1c0-0.2,0-0.3,0-0.5c0-0.3,0-0.6,0-0.9c0-0.2,0-0.3,0-0.5c0-0.3-0.1-0.6-0.1-0.8c0-0.2,0-0.3-0.1-0.5c0-0.3-0.1-0.6-0.2-0.9c0-0.2-0.1-0.3-0.1-0.5c-0.1-0.4-0.2-0.7-0.3-1.1c0-0.1,0-0.2-0.1-0.3c-0.1-0.4-0.3-0.9-0.5-1.3c0-0.1-0.1-0.2-0.1-0.3c-0.1-0.3-0.3-0.6-0.4-0.9c-0.1-0.2-0.2-0.3-0.2-0.4c-0.1-0.3-0.3-0.5-0.4-0.8c-0.1-0.2-0.2-0.3-0.3-0.5c-0.2-0.2-0.3-0.5-0.5-0.7c-0.1-0.1-0.2-0.3-0.3-0.4c-0.2-0.3-0.4-0.5-0.6-0.8c-0.1-0.1-0.2-0.2-0.3-0.4c-0.3-0.4-0.6-0.7-1-1.1c-3.6-3.6-8.3-5.4-13.1-5.4c-1.8,0-3.6,0.3-5.3,0.8c-2.9,0.8-5.6,2.4-7.8,4.6c0,0,0,0,0,0c-0.3,0.3-0.7,0.7-1,1.1c-0.1,0.1-0.2,0.2-0.3,0.4c-0.2,0.2-0.4,0.5-0.6,0.8c-0.1,0.1-0.2,0.3-0.3,0.4c-0.2,0.2-0.3,0.5-0.5,0.7c-0.1,0.2-0.2,0.3-0.3,0.5c-0.1,0.3-0.3,0.5-0.4,0.8c-0.1,0.1-0.2,0.3-0.2,0.4c-0.1,0.3-0.3,0.6-0.4,0.9c0,0.1-0.1,0.2-0.1,0.3c-0.2,0.4-0.3,0.9-0.5,1.3c0,0.1,0,0.2-0.1,0.2c-0.1,0.4-0.2,0.7-0.3,1.1c0,0.2-0.1,0.3-0.1,0.5c-0.1,0.3-0.1,0.6-0.2,0.9c0,0.2,0,0.3-0.1,0.5c0,0.3-0.1,0.6-0.1,0.9c0,0.2,0,0.3,0,0.5c0,0.3,0,0.6,0,0.9c0,0.2,0,0.3,0,0.5c0,0.4,0,0.7,0.1,1.1c0,0.1,0,0.2,0,0.3c0,0.4,0.1,0.9,0.2,1.3c0,0.1,0,0.2,0.1,0.4c0.1,0.3,0.1,0.6,0.2,1c0,0.2,0.1,0.3,0.1,0.5c0,0.2,0.1,0.3,0.1,0.5c1.4,4.5,2.8,9,3.8,13.6c5.3,24.8,8.7,55.5-2.3,78.6c-20,42.2-99.2,63.2-161.7,63.2V680h1334V450.4C1068,450.4,995.7,411,875,411z"/>

		<path fill="#fff" opacity="0.3" d="M743.3,520.2c0,1.9-1.6,3.5-3.5,3.5c-1.9,0-3.5-1.6-3.5-3.5s1.6-3.5,3.5-3.5C741.7,516.7,743.3,518.3,743.3,520.2z M880.8,457.7c-1.4,0-2.5,1.1-2.5,2.5s1.1,2.5,2.5,2.5c1.4,0,2.5-1.1,2.5-2.5S882.2,457.7,880.8,457.7z M438.5,509.2c-1.9,0-3.5,1.6-3.5,3.5s1.6,3.5,3.5,3.5c1.9,0,3.5-1.6,3.5-3.5S440.4,509.2,438.5,509.2zM960,611.2c-4.1,0-7.5,3.4-7.5,7.5c0,4.1,3.4,7.5,7.5,7.5c4.1,0,7.5-3.4,7.5-7.5C967.5,614.6,964.1,611.2,960,611.2zM1099.1,564.9c-1.9,0-3.5,1.6-3.5,3.5c0,1.9,1.6,3.5,3.5,3.5c1.9,0,3.5-1.6,3.5-3.5C1102.6,566.4,1101,564.9,1099.1,564.9zM693,613.6c-2.5,0-4.5,2-4.5,4.5s2,4.5,4.5,4.5c2.5,0,4.5-2,4.5-4.5S695.5,613.6,693,613.6z M1248.4,502.7c-2.5,0-4.5,2-4.5,4.5c0,2.5,2,4.5,4.5,4.5c2.5,0,4.5-2,4.5-4.5C1252.9,504.7,1250.9,502.7,1248.4,502.7z M532.5,567.2l-2.7,4.8l-4.9,2.6l4.8,2.7l2.6,4.9l2.7-4.8l4.9-2.6l-4.8-2.7L532.5,567.2z M312.5,466.2l-2.7,4.8l-4.9,2.6l4.8,2.7l2.6,4.9l2.7-4.8l4.9-2.6l-4.8-2.7L312.5,466.2z M44.1,563.7l-1.8,3.2l-3.3,1.7l3.2,1.8l1.7,3.3l1.8-3.2l3.3-1.7l-3.2-1.8L44.1,563.7z M849.2,564.5l-2.2,3.8l-3.9,2l3.8,2.2l2,3.9l2.2-3.8l3.9-2l-3.8-2.2L849.2,564.5z M611.7,492l-1.8,3.2l-3.3,1.7l3.2,1.8l1.7,3.3l1.8-3.2l3.3-1.7l-3.2-1.8L611.7,492z M393.9,598.2l-1.8,3.2l-3.3,1.7l3.2,1.8l1.7,3.3l1.8-3.2l3.3-1.7l-3.2-1.8L393.9,598.2z M1193.9,600.7l-2.9,5.1l-5.2,2.7l5.1,2.9l2.7,5.2l2.9-5.1l5.2-2.7l-5.1-2.9L1193.9,600.7z M999.2,508.4l-1.6,2.9l-2.9,1.5l2.9,1.6l1.5,2.9l1.6-2.l2.9-1.5l-2.9-1.6L999.2,508.4z"/>
	</g>

	<circle fill="#fff" opacity="0.3" cx="177.7" cy="520" r="160"/>
	<circle fill="#fff" opacity="0.15" cx="177.7" cy="520" r="125"/>
	<path fill="#18112C" d="M115.8,548.5l-2.2-11.8h-12.5l-2,11.8H88.8l11.5-56.9h14l12,56.9H115.8z M102.5,528.8h9.7l-5-27.2L102.5,528.8z M148.4,538.1v-12.2c0-1-0.2-1.6-0.5-1.9c-0.4-0.3-1-0.5-2-0.5h-7.3c-6.2,0-9.3-3-9.3-9v-14c0-6,3.2-8.9,9.7-8.9h9.9c6.5,0,9.7,3,9.7,8.9v7.9h-10.5v-6.5c0-1-0.2-1.6-0.5-1.9c-0.4-0.3-1-0.5-2-0.5h-3.4c-1,0-1.7,0.2-2.1,0.5c-0.4,0.3-0.5,1-0.5,1.9v11.5c0,1,0.2,1.6,0.5,1.9c0.4,0.3,1.1,0.5,2.1,0.5h7.1c6.3,0,9.5,2.9,9.5,8.8v14.9c0,6-3.3,8.9-9.8,8.9h-9.7c-6.6,0-9.8-3-9.8-8.9v-7.8h10.4v6.4c0,1,0.2,1.6,0.5,1.9c0.4,0.3,1.1,0.5,2.1,0.5h3.4c1,0,1.6-0.2,2-0.5C148.2,539.7,148.4,539,148.4,538.1z M193.7,491.5v7.9h-10v49h-10.4v-49h-9.9v-7.9H193.7z M209.2,526.3v22.2h-10.4v-56.9h20.9c6.6,0,9.8,3,9.8,8.9v16.9c0,4.9-2.2,7.8-6.6,8.7l9.5,22.5h-11.2l-8.7-22.2H209.2z M209.2,499.5v19.1h7.5c1,0,1.6-0.2,2-0.5c0.4-0.3,0.5-1,0.5-1.9v-14.3c0-1-0.2-1.6-0.5-1.9c-0.4-0.3-1-0.5-2-0.5H209.2z M245.8,491.5h11c6.6,0,9.8,3,9.8,8.9v39.1c0,6-3.3,8.9-9.8,8.9h-11c-6.6,0-9.8-3-9.8-8.9v-39.1C236,494.5,239.3,491.5,245.8,491.5z M256.3,538.1v-36.2c0-1-0.2-1.6-0.5-1.9c-0.4-0.3-1-0.5-2-0.5H249c-1,0-1.7,0.2-2.1,0.5c-0.4,0.3-0.5,1-0.5,1.9v36.2c0,1,0.2,1.6,0.5,1.9c0.4,0.3,1.1,0.5,2.1,0.5h4.8c1,0,1.6-0.2,2-0.5C256.1,539.7,256.3,539,256.3,538.1z"/>

	<g class="astro-icon">
		<linearGradient id="s-astro-main" gradientUnits="userSpaceOnUse" x1="177.7723" y1="273.8305" x2="177.7723" y2="1.8866">
			<stop  offset="0" style="stop-color:#4F2453"/>
			<stop  offset="0.198" style="stop-color:#681F55"/>
			<stop  offset="0.5489" style="stop-color:#901858"/>
			<stop  offset="0.8285" style="stop-color:#A8145A"/>
			<stop  offset="1" style="stop-color:#B1125B"/>
		</linearGradient>
		<path fill="url(#s-astro-main)" d="M262.2,187c-4.5-6.4-9.4-12.1-14.6-17.2c2.3-11.1,3.4-22.4,3.4-33.7c0-55.1-27.4-106.4-71.5-133.7c-0.1-0.1-0.2-0.1-0.3-0.1c-0.5-0.2-1-0.4-1.5-0.4c-0.5,0-1,0.1-1.5,0.4c-0.1,0-0.2,0.1-0.3,0.1c-44.1,27.3-71.5,78.5-71.5,133.7c0,11.3,1.2,22.6,3.4,33.7c-5.1,5.1-10,10.9-14.6,17.2c-0.6,0.8-0.8,1.9-0.5,2.9l24.9,81.6c0.4,1.2,1.3,2.1,2.5,2.3c1.2,0.2,2.5-0.2,3.2-1.1c7.1-8.4,16.9-15.1,28-18.9v5.1c0,1.8,1.5,3.3,3.4,3.3h45.7c1.9,0,3.4-1.5,3.4-3.3v-5.1c11.1,3.9,20.9,10.5,28,18.9c0.8,0.9,2,1.4,3.2,1.1c1.2-0.2,2.2-1.1,2.5-2.3l24.9-81.6C262.9,188.9,262.8,187.8,262.2,187z"/>

		<linearGradient id="s-left-wing" gradientUnits="userSpaceOnUse" x1="122.1646" y1="273.8305" x2="122.1646" y2="169.77">
			<stop  offset="0" style="stop-color:#7D2062"/>
			<stop  offset="3.107369e-03" style="stop-color:#7E2062"/>
			<stop  offset="0.2064" style="stop-color:#A3205E"/>
			<stop  offset="0.4098" style="stop-color:#C01F5C"/>
			<stop  offset="0.611" style="stop-color:#D41F5A"/>
			<stop  offset="0.8089" style="stop-color:#E11F58"/>
			<stop  offset="1" style="stop-color:#E51F58"/>
		</linearGradient>
		<path fill="url(#s-left-wing)" d="M107.9,169.8c-5.1,5.1-10,10.9-14.6,17.2c-0.6,0.8-0.8,1.9-0.5,2.9l24.9,81.6c0.4,1.2,1.3,2.1,2.5,2.3c1.2,0.2,2.5-0.2,3.2-1.1c7.1-8.4,16.9-15.1,28-18.9C151.6,246.2,120.7,215.2,107.9,169.8z"/>
		
		<linearGradient id="s-right-wing" gradientUnits="userSpaceOnUse" x1="1208.8204" y1="273.8305" x2="1208.8204" y2="169.77" gradientTransform="matrix(-1 0 0 1 1442.2003 0)">
			<stop  offset="0" style="stop-color:#7D2062"/>
			<stop  offset="3.107369e-03" style="stop-color:#7E2062"/>
			<stop  offset="0.2064" style="stop-color:#A3205E"/>
			<stop  offset="0.4098" style="stop-color:#C01F5C"/>
			<stop  offset="0.611" style="stop-color:#D41F5A"/>
			<stop  offset="0.8089" style="stop-color:#E11F58"/>
			<stop  offset="1" style="stop-color:#E51F58"/>
		</linearGradient>
		<path fill="url(#s-right-wing)" d="M247.6,169.8c5.1,5.1,10,10.9,14.6,17.2c0.6,0.8,0.8,1.9,0.5,2.9l-24.9,81.6c-0.4,1.2-1.3,2.1-2.5,2.3c-1.2,0.2-2.5-0.2-3.2-1.1c-7.1-8.4-16.9-15.1-28-18.9C204,246.2,234.9,215.2,247.6,169.8z"/>

		<path fill="#fff" d="M203.1,226.8c-0.5,0-1-0.1-1.4-0.4c-1.2-0.8-1.6-2.4-0.8-3.7l0.4-0.6c13.4-21.1,31.6-50.1,31.6-89.5c0-1.5,1.2-2.7,2.7-2.7s2.7,1.2,2.7,2.7c0,41-18.8,70.7-32.5,92.4l-0.4,0.6C204.8,226.3,203.9,226.8,203.1,226.8z"/>
		<path fill="#E51F58" d="M197.9,77.6c0.5,0,0.9,0.2,1.2,0.6l10.2,14.1c0.4,0.5,0.3,1.3-0.1,1.8l-30.4,32.4c-0.3,0.3-0.7,0.5-1.1,0.5s-0.8-0.2-1.1-0.5L146.2,94c-0.5-0.5-0.5-1.2-0.1-1.8l10.2-14.1c0.3-0.4,0.7-0.6,1.2-0.6H197.9M197.9,74.1h-40.4c-1.6,0-3.1,0.8-4,2.1l-10.2,14.1c-1.4,1.9-1.2,4.5,0.4,6.2l30.4,32.4c0.9,1,2.3,1.6,3.6,1.6c1.4,0,2.7-0.6,3.6-1.6l30.4-32.4c1.6-1.7,1.8-4.3,0.4-6.2l-10.2-14.1C201,74.9,199.5,74.1,197.9,74.1L197.9,74.1z"/>
		<path fill="#4F2453" d="M209.2,92.3L199,78.2c-0.3-0.4-0.7-0.6-1.2-0.6h-40.4c-0.5,0-0.9,0.2-1.2,0.6l-10.2,14.1c-0.4,0.5-0.3,1.3,0.1,1.8l0.1,0.1l0.6,0.6l9.4-13c0.3-0.4,0.7-0.6,1.2-0.6h40.4c0.5,0,0.9,0.2,1.2,0.6l9.4,13l0.6-0.6l0.1-0.1C209.6,93.5,209.6,92.8,209.2,92.3z"/>
		<path fill="#fff" d="M178.7,126.4l29.7-31.7l-9.4-13c-0.3-0.4-0.7-0.6-1.2-0.6h-40.4c-0.5,0-0.9,0.2-1.2,0.6l-9.4,13l29.8,31.7C177.2,127,178.1,127,178.7,126.4z"/>
	</g>
</svg>