<?xml version="1.0" encoding="utf-8"?>
<!-- Generator: Adobe Illustrator 22.1.0, SVG Export Plug-In . SVG Version: 6.00 Build 0)  -->
<svg version="1.1" id="圖層_1" xmlns="http://www.w3.org/2000/svg" xmlns:xlink="http://www.w3.org/1999/xlink" x="0px" y="0px"
	 viewBox="0 0 511 511" style="enable-background:new 0 0 511 511;" xml:space="preserve">
<style type="text/css">
	.st0{fill:#494949;}
</style>
<path class="st0" d="M39.5,121c2,0,3.9-0.8,5.3-2.2c1.4-1.4,2.2-3.3,2.2-5.3s-0.8-3.9-2.2-5.3s-3.3-2.2-5.3-2.2s-3.9,0.8-5.3,2.2
	c-1.4,1.4-2.2,3.3-2.2,5.3s0.8,3.9,2.2,5.3C35.6,120.2,37.5,121,39.5,121z M63.5,121c2,0,3.9-0.8,5.3-2.2c1.4-1.4,2.2-3.3,2.2-5.3
	s-0.8-3.9-2.2-5.3c-1.4-1.4-3.3-2.2-5.3-2.2c-2,0-3.9,0.8-5.3,2.2c-1.4,1.4-2.2,3.3-2.2,5.3s0.8,3.9,2.2,5.3
	C59.6,120.2,61.5,121,63.5,121z M87.5,121c2,0,3.9-0.8,5.3-2.2c1.4-1.4,2.2-3.3,2.2-5.3s-0.8-3.9-2.2-5.3c-1.4-1.4-3.3-2.2-5.3-2.2
	s-3.9,0.8-5.3,2.2c-1.4,1.4-2.2,3.3-2.2,5.3s0.8,3.9,2.2,5.3C83.6,120.2,85.5,121,87.5,121z M119.5,121h304c4.1,0,7.5-3.4,7.5-7.5
	s-3.4-7.5-7.5-7.5h-304c-4.1,0-7.5,3.4-7.5,7.5S115.4,121,119.5,121z M455.5,121h16c4.1,0,7.5-3.4,7.5-7.5s-3.4-7.5-7.5-7.5h-16
	c-4.1,0-7.5,3.4-7.5,7.5S451.4,121,455.5,121z M223.5,186h-160C55,186,48,193,48,201.5v32c0,8.5,7,15.5,15.5,15.5h160
	c8.5,0,15.5-7,15.5-15.5v-32C239,193,232,186,223.5,186z M224,233.5c0,0.3-0.2,0.5-0.5,0.5h-160c-0.3,0-0.5-0.2-0.5-0.5v-32
	c0-0.3,0.2-0.5,0.5-0.5h160c0.3,0,0.5,0.2,0.5,0.5V233.5z M455.5,210h-49.7c-3.1-9.3-11.9-16-22.3-16s-19.1,6.7-22.3,16h-17.7
	c-4.1,0-7.5,3.4-7.5,7.5s3.4,7.5,7.5,7.5h17.7c3.1,9.3,11.9,16,22.3,16s19.1-6.7,22.3-16h49.7c4.1,0,7.5-3.4,7.5-7.5
	S459.6,210,455.5,210z M383.5,226c-4.7,0-8.5-3.8-8.5-8.5s3.8-8.5,8.5-8.5s8.5,3.8,8.5,8.5S388.2,226,383.5,226z M287.5,186
	c-17.4,0-31.5,14.1-31.5,31.5s14.1,31.5,31.5,31.5s31.5-14.1,31.5-31.5S304.9,186,287.5,186z M287.5,234c-9.1,0-16.5-7.4-16.5-16.5
	s7.4-16.5,16.5-16.5s16.5,7.4,16.5,16.5S296.6,234,287.5,234z M223.5,274h-160C55,274,48,281,48,289.5v32c0,8.5,7,15.5,15.5,15.5
	h160c8.5,0,15.5-7,15.5-15.5v-32C239,281,232,274,223.5,274z M224,321.5c0,0.3-0.2,0.5-0.5,0.5h-160c-0.3,0-0.5-0.2-0.5-0.5v-32
	c0-0.3,0.2-0.5,0.5-0.5h160c0.3,0,0.5,0.2,0.5,0.5V321.5z M455.5,298h-9.7c-3.1-9.3-11.9-16-22.3-16s-19.1,6.7-22.3,16h-57.7
	c-4.1,0-7.5,3.4-7.5,7.5s3.4,7.5,7.5,7.5h57.7c3.1,9.3,11.9,16,22.3,16s19.1-6.7,22.3-16h9.7c4.1,0,7.5-3.4,7.5-7.5
	S459.6,298,455.5,298z M423.5,314c-4.7,0-8.5-3.8-8.5-8.5s3.8-8.5,8.5-8.5s8.5,3.8,8.5,8.5S428.2,314,423.5,314z M287.5,274
	c-17.4,0-31.5,14.1-31.5,31.5s14.1,31.5,31.5,31.5s31.5-14.1,31.5-31.5S304.9,274,287.5,274z M287.5,322c-9.1,0-16.5-7.4-16.5-16.5
	s7.4-16.5,16.5-16.5s16.5,7.4,16.5,16.5S296.6,322,287.5,322z M223.5,362h-160C55,362,48,369,48,377.5v32c0,8.5,7,15.5,15.5,15.5
	h160c8.5,0,15.5-7,15.5-15.5v-32C239,369,232,362,223.5,362z M224,409.5c0,0.3-0.2,0.5-0.5,0.5h-160c-0.3,0-0.5-0.2-0.5-0.5v-32
	c0-0.3,0.2-0.5,0.5-0.5h160c0.3,0,0.5,0.2,0.5,0.5V409.5z M455.5,386h-41.7c-3.1-9.3-11.9-16-22.3-16s-19.1,6.7-22.3,16h-25.7
	c-4.1,0-7.5,3.4-7.5,7.5s3.4,7.5,7.5,7.5h25.7c3.1,9.3,11.9,16,22.3,16s19.1-6.7,22.3-16h41.7c4.1,0,7.5-3.4,7.5-7.5
	S459.6,386,455.5,386z M391.5,402c-4.7,0-8.5-3.8-8.5-8.5s3.8-8.5,8.5-8.5s8.5,3.8,8.5,8.5S396.2,402,391.5,402z M287.5,362
	c-17.4,0-31.5,14.1-31.5,31.5s14.1,31.5,31.5,31.5s31.5-14.1,31.5-31.5S304.9,362,287.5,362z M287.5,410c-9.1,0-16.5-7.4-16.5-16.5
	s7.4-16.5,16.5-16.5s16.5,7.4,16.5,16.5S296.6,410,287.5,410z M471.5,74h-432C17.7,74,0,91.7,0,113.5v320C0,455.3,17.7,473,39.5,473
	h432c21.8,0,39.5-17.7,39.5-39.5v-320C511,91.7,493.3,74,471.5,74z M39.5,89h432c13.5,0,24.5,11,24.5,24.5V138H15v-24.5
	C15,100,26,89,39.5,89z M471.5,458h-432C26,458,15,447,15,433.5V153h481v280.5C496,447,485,458,471.5,458z"/>
</svg>
