<?xml version="1.0" encoding="utf-8"?>
<svg version="1.1" xmlns="http://www.w3.org/2000/svg" xmlns:xlink="http://www.w3.org/1999/xlink" x="0px" y="0px" viewBox="0 0 511 511" style="enable-background:new 0 0 511 511;" xml:space="preserve">
<path fill="#494949" d="M39.5,118c2,0,3.9-0.8,5.3-2.2c1.4-1.4,2.2-3.3,2.2-5.3s-0.8-3.9-2.2-5.3s-3.3-2.2-5.3-2.2s-3.9,0.8-5.3,2.2
	c-1.4,1.4-2.2,3.3-2.2,5.3s0.8,3.9,2.2,5.3C35.6,117.2,37.5,118,39.5,118z M63.5,118c2,0,3.9-0.8,5.3-2.2c1.4-1.4,2.2-3.3,2.2-5.3
	s-0.8-3.9-2.2-5.3c-1.4-1.4-3.3-2.2-5.3-2.2c-2,0-3.9,0.8-5.3,2.2c-1.4,1.4-2.2,3.3-2.2,5.3s0.8,3.9,2.2,5.3
	C59.6,117.2,61.5,118,63.5,118z M87.5,118c2,0,3.9-0.8,5.3-2.2c1.4-1.4,2.2-3.3,2.2-5.3s-0.8-3.9-2.2-5.3c-1.4-1.4-3.3-2.2-5.3-2.2
	s-3.9,0.8-5.3,2.2c-1.4,1.4-2.2,3.3-2.2,5.3s0.8,3.9,2.2,5.3C83.6,117.2,85.5,118,87.5,118z M375.5,295c-9.1,0-16.5-7.4-16.5-16.5
	v-24c0-17.4-14.1-31.5-31.5-31.5h-8c-4.1,0-7.5,3.4-7.5,7.5s3.4,7.5,7.5,7.5h8c9.1,0,16.5,7.4,16.5,16.5v24c0,9.6,4.3,18.2,11.1,24
	c-6.8,5.8-11.1,14.4-11.1,24v24c0,9.1-7.4,16.5-16.5,16.5h-8c-4.1,0-7.5,3.4-7.5,7.5s3.4,7.5,7.5,7.5h8c17.4,0,31.5-14.1,31.5-31.5
	v-24c0-9.1,7.4-16.5,16.5-16.5c4.1,0,7.5-3.4,7.5-7.5S379.6,295,375.5,295z M167,278.5v-24c0-9.1,7.4-16.5,16.5-16.5h8
	c4.1,0,7.5-3.4,7.5-7.5s-3.4-7.5-7.5-7.5h-8c-17.4,0-31.5,14.1-31.5,31.5v24c0,9.1-7.4,16.5-16.5,16.5c-4.1,0-7.5,3.4-7.5,7.5
	s3.4,7.5,7.5,7.5c9.1,0,16.5,7.4,16.5,16.5v24c0,17.4,14.1,31.5,31.5,31.5h8c4.1,0,7.5-3.4,7.5-7.5s-3.4-7.5-7.5-7.5h-8
	c-9.1,0-16.5-7.4-16.5-16.5v-24c0-9.6-4.3-18.2-11.1-24C162.7,296.7,167,288.1,167,278.5z M295.5,335c-2,0-3.9,0.8-5.3,2.2
	c-1.4,1.4-2.2,3.3-2.2,5.3s0.8,3.9,2.2,5.3c1.4,1.4,3.3,2.2,5.3,2.2s3.9-0.8,5.3-2.2c1.4-1.4,2.2-3.3,2.2-5.3s-0.8-3.9-2.2-5.3
	C299.4,335.8,297.5,335,295.5,335z M255.5,335c-2,0-3.9,0.8-5.3,2.2c-1.4,1.4-2.2,3.3-2.2,5.3s0.8,3.9,2.2,5.3s3.3,2.2,5.3,2.2
	s3.9-0.8,5.3-2.2c1.4-1.4,2.2-3.3,2.2-5.3s-0.8-3.9-2.2-5.3C259.4,335.8,257.5,335,255.5,335z M215.5,335c-2,0-3.9,0.8-5.3,2.2
	c-1.4,1.4-2.2,3.3-2.2,5.3s0.8,3.9,2.2,5.3s3.3,2.2,5.3,2.2s3.9-0.8,5.3-2.2c1.4-1.4,2.2-3.3,2.2-5.3s-0.8-3.9-2.2-5.3
	C219.4,335.8,217.5,335,215.5,335z M119.5,118h304c4.1,0,7.5-3.4,7.5-7.5s-3.4-7.5-7.5-7.5h-304c-4.1,0-7.5,3.4-7.5,7.5
	S115.4,118,119.5,118z M455.5,118h16c4.1,0,7.5-3.4,7.5-7.5s-3.4-7.5-7.5-7.5h-16c-4.1,0-7.5,3.4-7.5,7.5S451.4,118,455.5,118z
	 M471.5,71h-432C17.7,71,0,88.7,0,110.5v320C0,452.3,17.7,470,39.5,470h432c21.8,0,39.5-17.7,39.5-39.5v-320
	C511,88.7,493.3,71,471.5,71z M39.5,86h432C485,86,496,97,496,110.5V135H15v-24.5C15,97,26,86,39.5,86z M471.5,455h-432
	C26,455,15,444,15,430.5V150h481v280.5C496,444,485,455,471.5,455z"/>
</svg>
