<?xml version="1.0" encoding="utf-8"?>
<svg version="1.1" xmlns="http://www.w3.org/2000/svg" xmlns:xlink="http://www.w3.org/1999/xlink" x="0px" y="0px" viewBox="0 0 511 511" style="enable-background:new 0 0 511 511;" xml:space="preserve">
<path fill="#494949" d="M471.5,71h-432C17.7,71,0,88.7,0,110.5v320C0,452.3,17.7,470,39.5,470h432c21.8,0,39.5-17.7,39.5-39.5v-320
	C511,88.7,493.3,71,471.5,71z M39.5,86h432C485,86,496,97,496,110.5V135H15v-24.5C15,97,26,86,39.5,86z M471.5,455h-432
	C26,455,15,444,15,430.5V150h481v280.5C496,444,485,455,471.5,455z M39.5,118c2,0,3.9-0.8,5.3-2.2c1.4-1.4,2.2-3.3,2.2-5.3
	s-0.8-3.9-2.2-5.3c-1.4-1.4-3.3-2.2-5.3-2.2s-3.9,0.8-5.3,2.2c-1.4,1.4-2.2,3.3-2.2,5.3s0.8,3.9,2.2,5.3
	C35.6,117.2,37.5,118,39.5,118z M63.5,118c2,0,3.9-0.8,5.3-2.2c1.4-1.4,2.2-3.3,2.2-5.3s-0.8-3.9-2.2-5.3c-1.4-1.4-3.3-2.2-5.3-2.2
	c-2,0-3.9,0.8-5.3,2.2c-1.4,1.4-2.2,3.3-2.2,5.3s0.8,3.9,2.2,5.3C59.6,117.2,61.5,118,63.5,118z M87.5,118c2,0,3.9-0.8,5.3-2.2
	c1.4-1.4,2.2-3.3,2.2-5.3s-0.8-3.9-2.2-5.3c-1.4-1.4-3.3-2.2-5.3-2.2s-3.9,0.8-5.3,2.2c-1.4,1.4-2.2,3.3-2.2,5.3s0.8,3.9,2.2,5.3
	C83.6,117.2,85.5,118,87.5,118z M289.8,207.4c-3.9-1.3-8.2,0.9-9.4,4.9l-56,176c-1.3,3.9,0.9,8.2,4.9,9.4c0.8,0.2,1.5,0.4,2.3,0.4
	c3.2,0,6.1-2,7.1-5.2l56-176C295.9,212.8,293.7,208.6,289.8,207.4z M324.8,225.2c-2.9-2.9-7.7-2.9-10.6,0c-2.9,2.9-2.9,7.7,0,10.6
	l66.7,66.7l-66.7,66.7c-2.9,2.9-2.9,7.7,0,10.6c1.5,1.5,3.4,2.2,5.3,2.2s3.8-0.7,5.3-2.2l72-72c2.9-2.9,2.9-7.7,0-10.6L324.8,225.2z
	 M204.8,225.2c-2.9-2.9-7.7-2.9-10.6,0l-72,72c-2.9,2.9-2.9,7.7,0,10.6l72,72c1.5,1.5,3.4,2.2,5.3,2.2s3.8-0.7,5.3-2.2
	c2.9-2.9,2.9-7.7,0-10.6l-66.7-66.7l66.7-66.7C207.7,232.9,207.7,228.1,204.8,225.2z M119.5,118h304c4.1,0,7.5-3.4,7.5-7.5
	s-3.4-7.5-7.5-7.5h-304c-4.1,0-7.5,3.4-7.5,7.5S115.4,118,119.5,118z M455.5,118h16c4.1,0,7.5-3.4,7.5-7.5s-3.4-7.5-7.5-7.5h-16
	c-4.1,0-7.5,3.4-7.5,7.5S451.4,118,455.5,118z"/>
</svg>
