<?xml version="1.0" encoding="utf-8"?>
<svg version="1.1" id="Capa_1" xmlns="http://www.w3.org/2000/svg" xmlns:xlink="http://www.w3.org/1999/xlink" x="0px" y="0px" viewBox="0 0 511 511" style="enable-background:new 0 0 511 511;" xml:space="preserve">
<path fill="#494949" d="M39.5,118c2,0,3.9-0.8,5.3-2.2c1.4-1.4,2.2-3.3,2.2-5.3s-0.8-3.9-2.2-5.3c-1.4-1.4-3.3-2.2-5.3-2.2
	s-3.9,0.8-5.3,2.2c-1.4,1.4-2.2,3.3-2.2,5.3s0.8,3.9,2.2,5.3C35.6,117.2,37.5,118,39.5,118z M63.5,118c2,0,3.9-0.8,5.3-2.2
	c1.4-1.4,2.2-3.3,2.2-5.3s-0.8-3.9-2.2-5.3c-1.4-1.4-3.3-2.2-5.3-2.2c-2,0-3.9,0.8-5.3,2.2c-1.4,1.4-2.2,3.3-2.2,5.3
	s0.8,3.9,2.2,5.3C59.6,117.2,61.5,118,63.5,118z M87.5,118c2,0,3.9-0.8,5.3-2.2c1.4-1.4,2.2-3.3,2.2-5.3s-0.8-3.9-2.2-5.3
	c-1.4-1.4-3.3-2.2-5.3-2.2s-3.9,0.8-5.3,2.2c-1.4,1.4-2.2,3.3-2.2,5.3c0,2,0.8,3.9,2.2,5.3C83.6,117.2,85.5,118,87.5,118z
	 M455.5,118h16c4.1,0,7.5-3.4,7.5-7.5s-3.4-7.5-7.5-7.5h-16c-4.1,0-7.5,3.4-7.5,7.5S451.4,118,455.5,118z M439.5,327h-80
	c-13,0-23.5,10.5-23.5,23.5v56c0,13,10.5,23.5,23.5,23.5h80c13,0,23.5-10.5,23.5-23.5v-56C463,337.5,452.5,327,439.5,327z
	 M448,406.5c0,4.7-3.8,8.5-8.5,8.5h-80c-4.7,0-8.5-3.8-8.5-8.5v-56c0-4.7,3.8-8.5,8.5-8.5h80c4.7,0,8.5,3.8,8.5,8.5V406.5z
	 M359.5,246c13,0,23.5-10.5,23.5-23.5S372.5,199,359.5,199S336,209.5,336,222.5S346.5,246,359.5,246z M359.5,214
	c4.7,0,8.5,3.8,8.5,8.5s-3.8,8.5-8.5,8.5s-8.5-3.8-8.5-8.5S354.8,214,359.5,214z M423.5,359h-48c-4.1,0-7.5,3.4-7.5,7.5
	s3.4,7.5,7.5,7.5h48c4.1,0,7.5-3.4,7.5-7.5S427.6,359,423.5,359z M399.5,383h-24c-4.1,0-7.5,3.4-7.5,7.5s3.4,7.5,7.5,7.5h24
	c4.1,0,7.5-3.4,7.5-7.5S403.6,383,399.5,383z M39.5,190h16c4.1,0,7.5-3.4,7.5-7.5s-3.4-7.5-7.5-7.5h-16c-4.1,0-7.5,3.4-7.5,7.5
	S35.4,190,39.5,190z M39.5,230h16c4.1,0,7.5-3.4,7.5-7.5s-3.4-7.5-7.5-7.5h-16c-4.1,0-7.5,3.4-7.5,7.5S35.4,230,39.5,230z M63.5,255
	h-8c-4.1,0-7.5,3.4-7.5,7.5s3.4,7.5,7.5,7.5h8c4.1,0,7.5-3.4,7.5-7.5S67.6,255,63.5,255z M39.5,310h16c4.1,0,7.5-3.4,7.5-7.5
	s-3.4-7.5-7.5-7.5h-16c-4.1,0-7.5,3.4-7.5,7.5S35.4,310,39.5,310z M87.5,190h32c4.1,0,7.5-3.4,7.5-7.5s-3.4-7.5-7.5-7.5h-32
	c-4.1,0-7.5,3.4-7.5,7.5S83.4,190,87.5,190z M87.5,310h64c4.1,0,7.5-3.4,7.5-7.5s-3.4-7.5-7.5-7.5h-64c-4.1,0-7.5,3.4-7.5,7.5
	S83.4,310,87.5,310z M87.5,230h80c4.1,0,7.5-3.4,7.5-7.5s-3.4-7.5-7.5-7.5h-80c-4.1,0-7.5,3.4-7.5,7.5S83.4,230,87.5,230z M95.5,255
	c-4.1,0-7.5,3.4-7.5,7.5s3.4,7.5,7.5,7.5h32c4.1,0,7.5-3.4,7.5-7.5s-3.4-7.5-7.5-7.5H95.5z M191,262.5c0-4.1-3.4-7.5-7.5-7.5h-24
	c-4.1,0-7.5,3.4-7.5,7.5s3.4,7.5,7.5,7.5h24C187.6,270,191,266.6,191,262.5z M215.5,255c-2,0-3.9,0.8-5.3,2.2
	c-1.4,1.4-2.2,3.3-2.2,5.3s0.8,3.9,2.2,5.3c1.4,1.4,3.3,2.2,5.3,2.2s3.9-0.8,5.3-2.2c1.4-1.4,2.2-3.3,2.2-5.3s-0.8-3.9-2.2-5.3
	C219.4,255.8,217.5,255,215.5,255z M194.2,337.2c-1.4,1.4-2.2,3.3-2.2,5.3s0.8,3.9,2.2,5.3c1.4,1.4,3.3,2.2,5.3,2.2s3.9-0.8,5.3-2.2
	c1.4-1.4,2.2-3.3,2.2-5.3s-0.8-3.9-2.2-5.3c-1.4-1.4-3.3-2.2-5.3-2.2S195.6,335.8,194.2,337.2z M63.5,335h-8c-4.1,0-7.5,3.4-7.5,7.5
	s3.4,7.5,7.5,7.5h8c4.1,0,7.5-3.4,7.5-7.5S67.6,335,63.5,335z M175,342.5c0-4.1-3.4-7.5-7.5-7.5h-72c-4.1,0-7.5,3.4-7.5,7.5
	s3.4,7.5,7.5,7.5h72C171.6,350,175,346.6,175,342.5z M63.5,375h-8c-4.1,0-7.5,3.4-7.5,7.5s3.4,7.5,7.5,7.5h8c4.1,0,7.5-3.4,7.5-7.5
	S67.6,375,63.5,375z M95.5,375c-4.1,0-7.5,3.4-7.5,7.5s3.4,7.5,7.5,7.5h48c4.1,0,7.5-3.4,7.5-7.5s-3.4-7.5-7.5-7.5H95.5z M207,382.5
	c0-4.1-3.4-7.5-7.5-7.5h-24c-4.1,0-7.5,3.4-7.5,7.5s3.4,7.5,7.5,7.5h24C203.6,390,207,386.6,207,382.5z M55.5,415h-16
	c-4.1,0-7.5,3.4-7.5,7.5s3.4,7.5,7.5,7.5h16c4.1,0,7.5-3.4,7.5-7.5S59.6,415,55.5,415z M111.5,415h-24c-4.1,0-7.5,3.4-7.5,7.5
	s3.4,7.5,7.5,7.5h24c4.1,0,7.5-3.4,7.5-7.5S115.6,415,111.5,415z M223.5,415h-16c-4.1,0-7.5,3.4-7.5,7.5s3.4,7.5,7.5,7.5h16
	c4.1,0,7.5-3.4,7.5-7.5S227.6,415,223.5,415z M151.5,190h64c4.1,0,7.5-3.4,7.5-7.5s-3.4-7.5-7.5-7.5h-64c-4.1,0-7.5,3.4-7.5,7.5
	S147.4,190,151.5,190z M175.5,415h-32c-4.1,0-7.5,3.4-7.5,7.5s3.4,7.5,7.5,7.5h32c4.1,0,7.5-3.4,7.5-7.5S179.6,415,175.5,415z
	 M471.5,71H263V54.5c0-4.1-3.4-7.5-7.5-7.5s-7.5,3.4-7.5,7.5V71H39.5C17.7,71,0,88.7,0,110.5v320C0,452.3,17.7,470,39.5,470H248
	v16.5c0,4.1,3.4,7.5,7.5,7.5s7.5-3.4,7.5-7.5V470h208.5c21.8,0,39.5-17.7,39.5-39.5v-320C511,88.7,493.3,71,471.5,71z M471.5,86
	C485,86,496,97,496,110.5V135H263v-17h160.5c4.1,0,7.5-3.4,7.5-7.5s-3.4-7.5-7.5-7.5H263V86H471.5z M39.5,86H248v17H119.5
	c-4.1,0-7.5,3.4-7.5,7.5s3.4,7.5,7.5,7.5H248v17H15v-24.5C15,97,26,86,39.5,86z M39.5,455C26,455,15,444,15,430.5V150h233v136.5
	c0,0,0,0,0,0V455H39.5z M263,342h32.5c4.7,0,8.5,3.8,8.5,8.5v56c0,4.7-3.8,8.5-8.5,8.5H263V342z M263,289.6l48.5-48.5l42.7,42.7
	c2.9,2.9,7.7,2.9,10.6,0l83.2-83.2v85.9c0,4.7-3.8,8.5-8.5,8.5H263V289.6z M359.5,267.9l-42.7-42.7c-2.9-2.9-7.7-2.9-10.6,0
	L263,268.4V190h174.4L359.5,267.9z M471.5,455H263v-25h32.5c13,0,23.5-10.5,23.5-23.5v-56c0-13-10.5-23.5-23.5-23.5H263v-17h176.5
	c13,0,23.5-10.5,23.5-23.5v-88c0-13-10.5-23.5-23.5-23.5H263v-25h233v280.5C496,444,485,455,471.5,455z"/>
</svg>
