<svg xmlns="http://www.w3.org/2000/svg" xmlns:xlink="http://www.w3.org/1999/xlink" viewBox="0 0 150 150"><defs><style>.\34 f775579-447e-468d-a7ef-ec4d70f3f79e{fill:url(#45bf31ae-f2a8-412c-9f81-0a5662daa696);}.d962c71e-9e9f-43ef-9464-9520b11d3255{fill:#4f2453;}.b74cd9b7-af7a-4e8b-b7ab-58cd3b9c242d{fill:#b1125b;}.\33 47e95a5-70f3-42c2-a3a0-505b2313fc26{fill:#e51f58;}.b3f53f05-a9df-43e3-86c6-71c34fe3ce81{fill:#18112c;}</style><linearGradient id="45bf31ae-f2a8-412c-9f81-0a5662daa696" x1="77.22" y1="136" x2="77.22" y2="18.44" gradientUnits="userSpaceOnUse"><stop offset="0" stop-color="#4f2453"/><stop offset="1" stop-color="#b2125b"/></linearGradient></defs><title>development_flow</title><g id="21496db9-5a64-4ffb-ae6c-e25537927b9e" data-name="FINAL"><g id="62c7af8d-9fcb-45a7-a8eb-fa6e1b8f7020" data-name="development_flow"><path id="22afeeb3-bd91-4841-beb9-3950cceee0f7" data-name="s-shadow" class="4f775579-447e-468d-a7ef-ec4d70f3f79e" d="M115.5,34.5h2v58h-2Zm-83,21h-7a11.46,11.46,0,0,1-7.06-2.44A11.47,11.47,0,0,0,27.5,57.5h5Zm23-30v7h2v-5a11.47,11.47,0,0,0-4.44-9.06A11.46,11.46,0,0,1,55.5,25.5Zm37,90h-58v2h58Zm39.06-18.56a11.48,11.48,0,0,1-9.06,18.56h-7v7a11.48,11.48,0,0,1-18.56,9.06,11.49,11.49,0,0,0,20.56-7.06v-7h7a11.49,11.49,0,0,0,7.06-20.56Z"/><path id="b5427aba-72ac-4a40-8520-0c150b6093bf" data-name="s-rules-l" class="d962c71e-9e9f-43ef-9464-9520b11d3255" d="M54,85.5H46a1.5,1.5,0,0,1,0-3h8a1.5,1.5,0,0,1,0,3ZM55.5,54A1.5,1.5,0,0,0,54,52.5H43a1.5,1.5,0,0,0,0,3H54A1.5,1.5,0,0,0,55.5,54Zm10,48V94a1.5,1.5,0,1,0-3,0v8a1.5,1.5,0,0,0,3,0Zm30,3V94a1.5,1.5,0,1,0-3,0v11a1.5,1.5,0,0,0,3,0Z"/><path id="b6637dc1-7a1d-4d71-af51-4a6f2053cdb3" data-name="s-rules-m" class="b74cd9b7-af7a-4e8b-b7ab-58cd3b9c242d" d="M54,75.5H49a1.5,1.5,0,0,1,0-3h5a1.5,1.5,0,0,1,0,3ZM55.5,44A1.5,1.5,0,0,0,54,42.5H46a1.5,1.5,0,0,0,0,3h8A1.5,1.5,0,0,0,55.5,44Zm20,55V94a1.5,1.5,0,1,0-3,0v5a1.5,1.5,0,0,0,3,0Zm30,3V94a1.5,1.5,0,1,0-3,0v8a1.5,1.5,0,0,0,3,0Z"/><path id="f6076ca8-25b3-4667-93fe-a736137466fe" data-name="s-rules-s" class="347e95a5-70f3-42c2-a3a0-505b2313fc26" d="M54,35.5H49a1.5,1.5,0,0,1,0-3h5a1.5,1.5,0,0,1,0,3ZM55.5,64A1.5,1.5,0,0,0,54,62.5H46a1.5,1.5,0,0,0,0,3h8A1.5,1.5,0,0,0,55.5,64Zm60,35V94a1.5,1.5,0,1,0-3,0v5a1.5,1.5,0,0,0,3,0Zm-30,3V94a1.5,1.5,0,1,0-3,0v8a1.5,1.5,0,0,0,3,0Z"/><path id="38d6d246-f9bf-4fec-86b2-78a359e07ad0" data-name="s-frame" class="b3f53f05-a9df-43e3-86c6-71c34fe3ce81" d="M72.58,54A1.42,1.42,0,1,1,74,55.42,1.42,1.42,0,0,1,72.58,54ZM131,35.5V19.12l-15.5,15.5V92.5h7a11.5,11.5,0,0,1,0,23h-7v7a11.5,11.5,0,0,1-23,0v-7H34.62L19.12,131H35.5a1.5,1.5,0,0,1,0,3H14V112.5a1.5,1.5,0,0,1,3,0v16.38l15.5-15.5V55.5h-7a11.5,11.5,0,0,1,0-23h7v-7a11.5,11.5,0,0,1,23,0v7h57.88L128.88,17H112.5a1.5,1.5,0,0,1,0-3H134V35.5a1.5,1.5,0,0,1-3,0ZM69.5,54A1.5,1.5,0,0,1,68,55.5H55.5V90.38L90.38,55.5H80a1.5,1.5,0,0,1,0-3H93.38l17-17H55.5v17H68A1.5,1.5,0,0,1,69.5,54ZM57.62,92.5H92.5V57.62ZM32.5,52.5v-17h-7a8.5,8.5,0,0,0,0,17Zm3,57.88,17-17V25.5a8.5,8.5,0,0,0-17,0Zm77,5.12h-17v7a8.5,8.5,0,0,0,17,0Zm-57.88-20-17,17H122.5a8.5,8.5,0,0,0,0-17ZM112.5,37.62l-17,17V92.5h17Z"/></g></g></svg>