<svg xmlns="http://www.w3.org/2000/svg" xmlns:xlink="http://www.w3.org/1999/xlink" viewBox="0 0 150 150"><defs><style>.\39 03494b7-990c-4c86-8548-0f8f9d5c1dad{fill:url(#442a3e07-8eff-495b-a431-805ae4c6b9a5);}.dfddb1f1-ddfb-40e3-8f25-a6de60230916{fill:#18112c;}.\36 fa1e840-1d61-424a-a892-1fa96fca8ee2{fill:#4f2453;}.\39 44fcc24-2452-41f5-8267-688bd3657263{fill:url(#1676a5d5-34ac-4e50-bcd7-bf132f4337a1);}.e0c6147a-4dec-47a5-974d-126ec062f255{fill:#e51f58;}</style><linearGradient id="442a3e07-8eff-495b-a431-805ae4c6b9a5" x1="75.99" y1="115.49" x2="81.26" y2="14.97" gradientUnits="userSpaceOnUse"><stop offset="0" stop-color="#4f2453"/><stop offset="1" stop-color="#b2125b"/></linearGradient><linearGradient id="1676a5d5-34ac-4e50-bcd7-bf132f4337a1" x1="92.62" y1="91.55" x2="53.27" y2="23.39" gradientUnits="userSpaceOnUse"><stop offset="0" stop-color="#7d2062"/><stop offset="1" stop-color="#e61f58"/></linearGradient></defs><title>environment_setup</title><g id="019beee4-c6da-417b-bf16-b592538a4657" data-name="FINAL"><g id="4f1d22d8-9797-4f32-8e72-1a649a09f2d4" data-name="environment_setup"><path id="10c206c8-88a0-4bd8-a014-ca76520dc04e" data-name="s-shadow" class="903494b7-990c-4c86-8548-0f8f9d5c1dad" d="M57.67,110.61l-.37,2h-36a5.23,5.23,0,0,1-4.57-2.7,5.2,5.2,0,0,0,2.57.7ZM133.3,17.7a5.2,5.2,0,0,1,.7,2.57v85.07a5.27,5.27,0,0,1-5.27,5.27H90.33l.37,2h40a5.27,5.27,0,0,0,5.27-5.27V22.27A5.23,5.23,0,0,0,133.3,17.7Z"/><path id="954cd681-f524-42dd-ad48-1c077d63e136" data-name="s-frame" class="dfddb1f1-ddfb-40e3-8f25-a6de60230916" d="M134,20.27v85.07a5.27,5.27,0,0,1-5.27,5.27H90.33l2.49,13.59h8a3.9,3.9,0,1,1,0,7.8H47.17a3.9,3.9,0,0,1,0-7.8h8l2.49-13.59H19.27A5.27,5.27,0,0,1,14,105.34V20.27A5.27,5.27,0,0,1,19.27,15H128.73A5.27,5.27,0,0,1,134,20.27Zm-2.93,85.07V96H16.93v9.36a2.34,2.34,0,0,0,2.34,2.34H128.73A2.34,2.34,0,0,0,131.07,105.34Zm0-12.29V20.27a2.34,2.34,0,0,0-2.34-2.34H19.27a2.34,2.34,0,0,0-2.34,2.34V93.05ZM101.8,128.1a1,1,0,0,0-1-1H47.17a1,1,0,0,0,0,1.95h53.66A1,1,0,0,0,101.8,128.1Zm-11.94-3.9-2.49-13.59H60.63L58.14,124.2ZM120.92,23.78H83.06a1.47,1.47,0,0,0,0,2.93h37.86a1.37,1.37,0,0,1,1.37,1.37V82.9a1.37,1.37,0,0,1-1.37,1.37H102.54a1.47,1.47,0,1,0,0,2.93h18.38a4.31,4.31,0,0,0,4.3-4.3V28.08A4.31,4.31,0,0,0,120.92,23.78ZM27.08,84.27a1.37,1.37,0,0,1-1.37-1.37V28.08a1.37,1.37,0,0,1,1.37-1.37H42.15a1.47,1.47,0,0,0,0-2.93H27.08a4.31,4.31,0,0,0-4.3,4.3V82.9a4.31,4.31,0,0,0,4.3,4.3h48.7a1.47,1.47,0,0,0,0-2.93Z"/><path id="31ff19c4-0b95-488a-b41a-46b8fcd9343d" data-name="s-gears-shadow" class="6fa1e840-1d61-424a-a892-1fa96fca8ee2" d="M108.12,68.93a1.08,1.08,0,0,1-.57,1.35l-3.42,1.83a.64.64,0,0,0-.38.55l-.15,3.25a.63.63,0,0,0,.32.58l3.2,2.13a1.07,1.07,0,0,1,.45,1.39l-1.1,2.33a1.07,1.07,0,0,1-1,.62,1,1,0,0,1-.38-.07l-3.69-1.12a.85.85,0,0,0-.22,0,.63.63,0,0,0-.43.17l-2.41,2.19a.64.64,0,0,0-.18.64l.77,3.8a1.08,1.08,0,0,1-.67,1.3l-2.42.87a1.15,1.15,0,0,1-.36.07,1.08,1.08,0,0,1-1-.64L92.7,86.7a.66.66,0,0,0-.56-.37l-3.24-.15h0a.63.63,0,0,0-.55.32l-2.12,3.2a1.08,1.08,0,0,1-.94.55,1.11,1.11,0,0,1-.46-.11l-2.32-1.09a1.08,1.08,0,0,1-.55-1.36L83,84a.64.64,0,0,0-.12-.65L80.72,81a.68.68,0,0,0-.48-.21.45.45,0,0,0-.16,0l-3.81.77a.9.9,0,0,1-.28,0,1.09,1.09,0,0,1-1-.71l-.87-2.42a1.08,1.08,0,0,1,.57-1.35l3.43-1.82a.64.64,0,0,0,.37-.56l.16-3.24a.67.67,0,0,0-.32-.59L75.1,68.76a1.07,1.07,0,0,1-.44-1.39L75.75,65a1.09,1.09,0,0,1,1-.61,1,1,0,0,1,.38.07l3.68,1.11a.59.59,0,0,0,.23,0,.69.69,0,0,0,.43-.16l2.4-2.19a.65.65,0,0,0,.19-.64l-.78-3.81a1.08,1.08,0,0,1,.68-1.3l2.42-.87a1.13,1.13,0,0,1,.36-.06,1.08,1.08,0,0,1,1,.63l1.83,3.43a.63.63,0,0,0,.55.37l3.25.16h0a.62.62,0,0,0,.55-.32L96,57.68a1.08,1.08,0,0,1,.94-.55,1.11,1.11,0,0,1,.46.11l2.32,1.09a1.08,1.08,0,0,1,.55,1.36l-1.12,3.68a.64.64,0,0,0,.13.65l2.19,2.41a.64.64,0,0,0,.47.21.51.51,0,0,0,.17,0l3.8-.77a1,1,0,0,1,.29,0,1.09,1.09,0,0,1,1,.71Zm-11.6,7.3a6,6,0,0,0-2.86-7.94,6,6,0,0,0-2.55-.57,5.84,5.84,0,0,0-2,.35,6,6,0,1,0,7.43,8.16Zm-10-32.83v3.34a1.4,1.4,0,0,1-1.29,1.4l-5,.73a.82.82,0,0,0-.7.51l-1.62,3.91a.84.84,0,0,0,.13.86l3,4a1.39,1.39,0,0,1-.07,1.9L78.6,62.44a1.4,1.4,0,0,1-1,.41,1.43,1.43,0,0,1-.91-.34l-4-3a.82.82,0,0,0-.54-.2,1,1,0,0,0-.32.06L67.91,61a.85.85,0,0,0-.51.71l-.72,5a1.41,1.41,0,0,1-1.4,1.3H61.93a1.41,1.41,0,0,1-1.4-1.3l-.72-5A.83.83,0,0,0,59.3,61l-3.91-1.62a1,1,0,0,0-.32-.06.82.82,0,0,0-.54.2l-4,3a1.43,1.43,0,0,1-.91.34,1.4,1.4,0,0,1-1-.41l-2.37-2.37a1.39,1.39,0,0,1-.07-1.9l3-4a.84.84,0,0,0,.13-.86l-1.62-3.91a.82.82,0,0,0-.7-.51l-5-.73a1.39,1.39,0,0,1-1.29-1.4V43.4A1.4,1.4,0,0,1,42,42l5-.73a.82.82,0,0,0,.7-.51l1.62-3.91a.82.82,0,0,0-.13-.85l-3-4a1.41,1.41,0,0,1,.07-1.91l2.37-2.36a1.4,1.4,0,0,1,1-.41,1.37,1.37,0,0,1,.91.34l4,3a.77.77,0,0,0,.54.2.91.91,0,0,0,.32-.06l3.91-1.62a.84.84,0,0,0,.51-.7l.72-5a1.4,1.4,0,0,1,1.4-1.29h3.35a1.4,1.4,0,0,1,1.4,1.29l.72,5a.84.84,0,0,0,.51.7l3.91,1.62a.91.91,0,0,0,.32.06.77.77,0,0,0,.54-.2l4-3a1.37,1.37,0,0,1,.91-.34,1.4,1.4,0,0,1,1,.41L81,30.07A1.4,1.4,0,0,1,81,32l-3,4a.84.84,0,0,0-.13.86l1.62,3.91a.82.82,0,0,0,.7.51l5,.73A1.4,1.4,0,0,1,86.53,43.4ZM71.38,45.07a7.77,7.77,0,0,0-7.75-7.77h-.05a7.77,7.77,0,0,0,0,15.54h0a7.77,7.77,0,0,0,7.75-7.77Z"/><path id="e7d09127-1817-4d2e-9d03-0da14ec61ad1" data-name="s-gears" class="944fcc24-2452-41f5-8267-688bd3657263" d="M107.12,67.93a1.08,1.08,0,0,1-.57,1.35l-3.42,1.83a.64.64,0,0,0-.38.55l-.15,3.25a.63.63,0,0,0,.32.58l3.2,2.13a1.07,1.07,0,0,1,.45,1.39l-1.1,2.33a1.07,1.07,0,0,1-1,.62,1,1,0,0,1-.38-.07l-3.69-1.12a.85.85,0,0,0-.22,0,.63.63,0,0,0-.43.17l-2.41,2.19a.64.64,0,0,0-.18.64l.77,3.8a1.08,1.08,0,0,1-.67,1.3l-2.42.87a1.15,1.15,0,0,1-.36.07,1.08,1.08,0,0,1-1-.64L91.7,85.7a.66.66,0,0,0-.56-.37l-3.24-.15h0a.63.63,0,0,0-.55.32l-2.12,3.2a1.08,1.08,0,0,1-.94.55,1.11,1.11,0,0,1-.46-.11l-2.32-1.09a1.08,1.08,0,0,1-.55-1.36L82,83a.64.64,0,0,0-.12-.65L79.72,80a.68.68,0,0,0-.48-.21.45.45,0,0,0-.16,0l-3.81.77a.9.9,0,0,1-.28,0,1.09,1.09,0,0,1-1-.71l-.87-2.42a1.08,1.08,0,0,1,.57-1.35l3.43-1.82a.64.64,0,0,0,.37-.56l.16-3.24a.67.67,0,0,0-.32-.59L74.1,67.76a1.07,1.07,0,0,1-.44-1.39L74.75,64a1.09,1.09,0,0,1,1-.61,1,1,0,0,1,.38.07l3.68,1.11a.59.59,0,0,0,.23,0,.69.69,0,0,0,.43-.16l2.4-2.19a.65.65,0,0,0,.19-.64l-.78-3.81a1.08,1.08,0,0,1,.68-1.3l2.42-.87a1.13,1.13,0,0,1,.36-.06,1.08,1.08,0,0,1,1,.63l1.83,3.43a.63.63,0,0,0,.55.37l3.25.16h0a.62.62,0,0,0,.55-.32L95,56.68a1.08,1.08,0,0,1,.94-.55,1.11,1.11,0,0,1,.46.11l2.32,1.09a1.08,1.08,0,0,1,.55,1.36l-1.12,3.68a.64.64,0,0,0,.13.65l2.19,2.41a.64.64,0,0,0,.47.21.51.51,0,0,0,.17,0l3.8-.77a1,1,0,0,1,.29,0,1.09,1.09,0,0,1,1,.71Zm-11.6,7.3a6,6,0,0,0-2.86-7.94,6,6,0,0,0-2.55-.57,5.84,5.84,0,0,0-2,.35,6,6,0,1,0,7.43,8.16Zm-10-32.83v3.34a1.4,1.4,0,0,1-1.29,1.4l-5,.73a.82.82,0,0,0-.7.51l-1.62,3.91a.84.84,0,0,0,.13.86l3,4a1.39,1.39,0,0,1-.07,1.9L77.6,61.44a1.4,1.4,0,0,1-1,.41,1.43,1.43,0,0,1-.91-.34l-4-3a.82.82,0,0,0-.54-.2,1,1,0,0,0-.32.06L66.91,60a.85.85,0,0,0-.51.71l-.72,5a1.41,1.41,0,0,1-1.4,1.3H60.93a1.41,1.41,0,0,1-1.4-1.3l-.72-5A.83.83,0,0,0,58.3,60l-3.91-1.62a1,1,0,0,0-.32-.06.82.82,0,0,0-.54.2l-4,3a1.43,1.43,0,0,1-.91.34,1.4,1.4,0,0,1-1-.41l-2.37-2.37a1.39,1.39,0,0,1-.07-1.9l3-4a.84.84,0,0,0,.13-.86l-1.62-3.91a.82.82,0,0,0-.7-.51l-5-.73a1.39,1.39,0,0,1-1.29-1.4V42.4A1.4,1.4,0,0,1,41,41l5-.73a.82.82,0,0,0,.7-.51l1.62-3.91a.82.82,0,0,0-.13-.85l-3-4a1.41,1.41,0,0,1,.07-1.91l2.37-2.36a1.4,1.4,0,0,1,1-.41,1.37,1.37,0,0,1,.91.34l4,3a.77.77,0,0,0,.54.2.91.91,0,0,0,.32-.06l3.91-1.62a.84.84,0,0,0,.51-.7l.72-5a1.4,1.4,0,0,1,1.4-1.29h3.35a1.4,1.4,0,0,1,1.4,1.29l.72,5a.84.84,0,0,0,.51.7l3.91,1.62a.91.91,0,0,0,.32.06.77.77,0,0,0,.54-.2l4-3a1.37,1.37,0,0,1,.91-.34,1.4,1.4,0,0,1,1,.41L80,29.07A1.4,1.4,0,0,1,80,31l-3,4a.84.84,0,0,0-.13.86l1.62,3.91a.82.82,0,0,0,.7.51l5,.73A1.4,1.4,0,0,1,85.53,42.4ZM70.38,44.07a7.77,7.77,0,0,0-7.75-7.77h-.05a7.77,7.77,0,0,0,0,15.54h0a7.77,7.77,0,0,0,7.75-7.77Z"/><circle class="e0c6147a-4dec-47a5-974d-126ec062f255" cx="74" cy="101.83" r="2.44"/></g></g></svg>