<svg xmlns="http://www.w3.org/2000/svg" xmlns:xlink="http://www.w3.org/1999/xlink" viewBox="0 0 150 150"><defs><style>.\38 4df8169-02a8-451e-969c-18130e062963{fill:#b1125b;}.\37 c135eb9-545b-412e-9be4-fa4851e87a2f{fill:url(#62ea337f-ca9f-4128-94d3-0c650b13a3c4);}.\30 59fcc6b-98c4-4a3f-b156-7be0a7eef2d6{fill:#4f2453;}.ca8d60b6-d4a2-4ddc-9d4a-4ccef6f45e97{fill:#e51f58;}.\39 7eff8f5-4c6d-411a-a9a2-5f3e71debb5d{fill:#18112c;}</style><linearGradient id="62ea337f-ca9f-4128-94d3-0c650b13a3c4" x1="111.05" y1="50.49" x2="94.7" y2="22.17" gradientUnits="userSpaceOnUse"><stop offset="0" stop-color="#7d2062"/><stop offset="1" stop-color="#e61f58"/></linearGradient></defs><title>interview_skill</title><g id="8a386a67-3d63-4fd9-b845-4076bf331e8c" data-name="FINAL"><g id="713427cd-d876-4f11-b4db-179a53a8e0b2" data-name="interview_skill"><path class="84df8169-02a8-451e-969c-18130e062963" d="M41.5,115a1.5,1.5,0,0,1-1.5-1.5v-10a1.5,1.5,0,0,1,3,0v10A1.5,1.5,0,0,1,41.5,115Zm0,2a1.5,1.5,0,1,0,1.5,1.5A1.5,1.5,0,0,0,41.5,117Z"/><path class="7c135eb9-545b-412e-9be4-fa4851e87a2f" d="M110.68,36.66a1.47,1.47,0,0,0-1.46-1.46H90v2.92h19.22A1.47,1.47,0,0,0,110.68,36.66Zm-20.8-8.25h25.41a1.46,1.46,0,1,0,0-2.91H88.94A9.64,9.64,0,0,1,89.88,28.41Zm25.41,16.5H103.15a1.46,1.46,0,1,0,0,2.91h12.14a1.46,1.46,0,1,0,0-2.91Zm0-9.71a1.43,1.43,0,1,0,1.42,1.43A1.43,1.43,0,0,0,115.33,35.2ZM97.07,44.91H90v2.91h7.07a1.46,1.46,0,1,0,0-2.91Z"/><path class="059fcc6b-98c4-4a3f-b156-7be0a7eef2d6" d="M108.5,109.5A1.5,1.5,0,1,1,110,108,1.5,1.5,0,0,1,108.5,109.5ZM110,120v-7a1.5,1.5,0,0,0-3,0v7a1.5,1.5,0,0,0,3,0Z"/><path class="ca8d60b6-d4a2-4ddc-9d4a-4ccef6f45e97" d="M74.8,33.18a1.52,1.52,0,0,0-1.39-.4L66,34.43A1.51,1.51,0,0,0,65.22,37a1.52,1.52,0,0,0,1.39.4l2.17-.48L56.94,48.72l-6.25-6.25a1.5,1.5,0,0,0-2.13,0L35.2,55.83a1.51,1.51,0,0,0,0,2.12,1.51,1.51,0,0,0,2.13,0l12.29-12.3,6.26,6.25a1.49,1.49,0,0,0,2.12,0L71.21,38.69l-.59,2.68a1.52,1.52,0,0,0,.4,1.39A1.51,1.51,0,0,0,73.55,42l1.65-7.45A1.52,1.52,0,0,0,74.8,33.18Z"/><path id="6e913eda-70a3-45b5-9bdc-781aa880fe78" data-name="s-frame" class="97eff8f5-4c6d-411a-a9a2-5f3e71debb5d" d="M55.32,102H49.48A11,11,0,0,0,53,93.93V90.67A11.09,11.09,0,0,0,41.93,79.6h-.86A11.09,11.09,0,0,0,30,90.67v3.26A11,11,0,0,0,33.52,102H27.68A12.7,12.7,0,0,0,15,114.68V135H68V114.68A12.7,12.7,0,0,0,55.32,102ZM33,93.93V90.67a8.08,8.08,0,0,1,8.07-8.07h.86A8.08,8.08,0,0,1,50,90.67v3.26A8.08,8.08,0,0,1,41.93,102h-.86A8.08,8.08,0,0,1,33,93.93ZM65,132H18V114.68A9.69,9.69,0,0,1,27.68,105H55.32A9.69,9.69,0,0,1,65,114.68Zm57.32-30h-5.84A11,11,0,0,0,120,93.93V90.67A11.09,11.09,0,0,0,108.93,79.6h-.86A11.09,11.09,0,0,0,97,90.67v3.26a11,11,0,0,0,3.52,8.07H94.68A12.7,12.7,0,0,0,82,114.68V135h53V114.68A12.7,12.7,0,0,0,122.32,102ZM100,93.93V90.67a8.08,8.08,0,0,1,8.07-8.07h.86A8.08,8.08,0,0,1,117,90.67v3.26a8.08,8.08,0,0,1-8.07,8.07h-.86A8.08,8.08,0,0,1,100,93.93ZM132,132H85V114.68A9.69,9.69,0,0,1,94.68,105h27.64a9.69,9.69,0,0,1,9.68,9.68ZM126.5,21.17V51.83A6.18,6.18,0,0,1,120.33,58H106.5v6.09A2.51,2.51,0,0,1,105,66.4a2.69,2.69,0,0,1-1,.19,2.51,2.51,0,0,1-1.77-.74L94.38,58H90V55h5.62l7.88,7.88V55h16.83a3.17,3.17,0,0,0,3.17-3.17V21.17A3.17,3.17,0,0,0,120.33,18H69.67a3.17,3.17,0,0,0-3,2.21H63.58A6.17,6.17,0,0,1,69.67,15h50.66A6.18,6.18,0,0,1,126.5,21.17ZM47.77,74.56l7.85-7.85H80.33a6.18,6.18,0,0,0,6.17-6.17V29.87a6.17,6.17,0,0,0-6.17-6.16H29.67a6.17,6.17,0,0,0-6.17,6.16V60.54a6.18,6.18,0,0,0,6.17,6.17H43.5v6.08a2.5,2.5,0,0,0,4.27,1.77ZM80.33,26.71a3.17,3.17,0,0,1,3.17,3.16V60.54a3.17,3.17,0,0,1-3.17,3.17H54.38L46.5,71.58V63.71H29.67a3.17,3.17,0,0,1-3.17-3.17V29.87a3.17,3.17,0,0,1,3.17-3.16Z"/></g></g></svg>