<svg xmlns="http://www.w3.org/2000/svg" xmlns:xlink="http://www.w3.org/1999/xlink" viewBox="0 0 150 150"><defs><style>.\38 80eecb6-a63a-449e-9151-e41428ec0104{fill:url(#4952ee00-93b3-4c98-8f63-237e3128d45a);}.ba60572f-cbf8-4568-af27-4ed0a838178b{fill:#26b838;}.\39 ec113ff-182e-46bc-974b-57411018f6c8{fill:#fdbc44;}.\32 a2ddc67-9169-415d-b0ab-e722e377bf04{fill:#fc635e;}.\38 63f7372-fc00-48f6-b5de-5c887032f885{fill:#18112c;}.aa21869d-9d98-4f87-ac69-7e771d7620a8{fill:#e51f58;}.d842d276-5849-41a1-b06e-51f87d1e3422{fill:url(#2dcceada-c67b-4fbd-a201-9c87dcdd182b);}</style><linearGradient id="4952ee00-93b3-4c98-8f63-237e3128d45a" x1="76.36" y1="118.01" x2="76.36" y2="17.71" gradientUnits="userSpaceOnUse"><stop offset="0" stop-color="#4f2453"/><stop offset="1" stop-color="#b2125b"/></linearGradient><linearGradient id="2dcceada-c67b-4fbd-a201-9c87dcdd182b" x1="107.48" y1="91" x2="83.51" y2="49.49" gradientUnits="userSpaceOnUse"><stop offset="0" stop-color="#7d2062"/><stop offset="1" stop-color="#e61f58"/></linearGradient></defs><title>internet_intro</title><g id="5307f421-7463-4135-9680-578a0d4ee700" data-name="FINAL"><g id="d62d9492-4d57-45c5-a500-7a885905c4ea" data-name="internet_intro"><path id="8beb581d-5ffb-4279-a629-3eab1ce6ef16" data-name="s-shadow" class="880eecb6-a63a-449e-9151-e41428ec0104" d="M78.29,116l2,2H21.37a5.37,5.37,0,0,1-4.65-2.7,5.37,5.37,0,0,0,2.65.7Zm52.34,2a5.39,5.39,0,0,0,5.37-5.4V22.4a5.41,5.41,0,0,0-2.72-4.69A5.43,5.43,0,0,1,134,20.4v90.21a5.39,5.39,0,0,1-5.37,5.4H108l1,1a10.32,10.32,0,0,1,.88,1Z"/><g id="fb62f717-eea7-4cbc-afdf-e6c7eae9f628" data-name="g-buttons"><circle id="2b8f68e7-1d15-41ec-81c2-3fe1143170fa" data-name="o-green" class="ba60572f-cbf8-4568-af27-4ed0a838178b" cx="39.85" cy="26.28" r="2.44"/><circle id="2248003a-1fb0-4e89-9f95-e08dec19cfe4" data-name="o-yellow" class="9ec113ff-182e-46bc-974b-57411018f6c8" cx="32.54" cy="26.28" r="2.44"/><circle id="acad7026-a38c-4312-b9f6-ff65c4698dca" data-name="o-red" class="2a2ddc67-9169-415d-b0ab-e722e377bf04" cx="25.22" cy="26.28" r="2.44"/></g><path id="eceee327-3344-4343-9c90-e9ee96536841" data-name="s-frame" class="863f7372-fc00-48f6-b5de-5c887032f885" d="M19.37,18a2.44,2.44,0,0,0-2.44,2.45V34.61H131.07V20.4A2.45,2.45,0,0,0,128.63,18ZM40.92,68.14l2.42,7.29L52.75,66,45.5,63.53ZM41.41,79,36.16,63.09A3.43,3.43,0,0,1,37,59.58a3.35,3.35,0,0,1,3.49-.83L56.25,64l.25.24,6.28,6.34V47.37H26.68v55.89H65.61Zm38.25,8.62h0l15.6,15.69h26.05V47.37H65.71V73.54l11,11.09ZM95.15,128.8l4.31-4.33L49.07,73.81l-4.31,4.34Zm11.73,1a7.64,7.64,0,0,0,.92-9.61L97.32,130.77A7.53,7.53,0,0,0,106.88,129.83ZM78.29,116H19.37a5.38,5.38,0,0,1-5.37-5.4V20.4A5.38,5.38,0,0,1,19.37,15H128.63A5.39,5.39,0,0,1,134,20.4v90.21a5.39,5.39,0,0,1-5.37,5.4H108l1,1a10.6,10.6,0,0,1,0,14.9,10.44,10.44,0,0,1-14.83,0Zm-58.92-2.94h56l-6.83-6.87H26.2a2.44,2.44,0,0,1-2.44-2.45V46.87a2.45,2.45,0,0,1,2.44-2.45h95.6a2.45,2.45,0,0,1,2.44,2.45v56.88a2.44,2.44,0,0,1-2.44,2.45H98.2l6.82,6.87h23.61a2.45,2.45,0,0,0,2.44-2.46v-73H16.93v73.05A2.45,2.45,0,0,0,19.37,113.07Zm86.47,5L55.45,67.4l-4.3,4.33,50.38,50.65Z"/><path class="aa21869d-9d98-4f87-ac69-7e771d7620a8" d="M107.8,120.22a7.64,7.64,0,0,1-.92,9.61,7.53,7.53,0,0,1-9.56.94Z"/><path id="e60f5d6c-fee0-490e-bd0a-87a9faac7604" data-name="g-deco" class="d842d276-5849-41a1-b06e-51f87d1e3422" d="M74,55.21a1.47,1.47,0,0,0,0,2.94h39a1.47,1.47,0,0,0,0-2.94Zm39,19.61a1.47,1.47,0,1,1,0,2.94h-9.75a1.47,1.47,0,1,1,0-2.94Zm0,9.81a1.47,1.47,0,1,1,0,2.94H88.63a1.47,1.47,0,0,1,0-2.94ZM108.15,65a1.47,1.47,0,0,1,0,2.93H74A1.47,1.47,0,0,1,74,65Zm-9.76,9.8a1.47,1.47,0,0,1,0,2.94H74a1.47,1.47,0,0,1,0-2.94ZM83.76,84.63a1.47,1.47,0,0,1,0,2.94h-4.1l-2.92-2.94Zm30.73-18.14A1.46,1.46,0,1,1,113,65,1.46,1.46,0,0,1,114.49,66.49Z"/></g></g></svg>