<svg id="cf3d5932-7b66-4781-896b-36069ddaa03f" data-name="圖層 2" xmlns="http://www.w3.org/2000/svg" viewBox="0 0 150 150"><defs><style>.a8c6a82a-6231-45e3-88f6-0db4f6307038,.f1981ecc-b43d-4607-a99c-85be8654df1d{fill:#e51f58;}.f1981ecc-b43d-4607-a99c-85be8654df1d{opacity:0.1;}.a193ad0e-97b8-4bc7-b207-977c67529a73{fill:#d29b6e;}.\32 1313235-af7f-4884-8b09-f901a4c1de5b{fill:#707487;}.d907ea52-fbab-4b28-916e-cd18ad2b3e86{fill:#5b5d6e;}.\32 376f624-268b-4e58-8a1a-8fed88e3636d{fill:#e6af78;}.\36 df2eb06-7758-4956-a4d7-0a653e9ae623{fill:#785550;}.\30 f6158fb-675e-4538-8b7d-b6d796297677{fill:#694b4b;}.\36 7e3ff85-0f64-45b5-aaf3-37cc2bb64c0d{fill:#5a4146;}.\34 8241db9-a357-4fbe-82ff-3532d59ae6cd{fill:#b4e1fa;}.\36 dbb8af4-d76d-4a86-86d2-39c57469e296{fill:#a0d2f0;}.cd43a2ab-f4a1-4b0d-95e3-6dd7dc313b71{fill:#f0c087;}.\31 9b83b8f-2f58-401e-8e35-7fa739f6c948{fill:#eff2fa;}.\39 a020ea1-5afc-494e-86a6-8ec7add27ff9{fill:#7d2062;}.cbd05a0b-e1af-41d3-9a93-a0debb0d8808{fill:#4f2453;}.d4c78445-1dfc-44b6-b746-016375055092{fill:#e4eaf6;}.b668749c-9a6d-4f6e-a042-9d985ad1787f{fill:#353535;}.\33 ee043cb-e712-4b6d-878a-b4961e41691d{fill:#3a3a3a;}</style></defs><title>pain03</title><path class="f1981ecc-b43d-4607-a99c-85be8654df1d" d="M26.28,131.09C-2.11,105.53,3.93,52.53,29.43,24.21s67.33-15.85,95.72,9.72,18.89,42.2-6.61,70.52-63.86,52.21-92.26,26.64Z"/><polygon class="a193ad0e-97b8-4bc7-b207-977c67529a73" points="126.28 97.54 126.28 88.77 103.72 88.77 103.72 97.54 115 107.58 126.28 97.54"/><path class="21313235-af7f-4884-8b09-f901a4c1de5b" d="M141.44,101.65,127.16,98a2.66,2.66,0,0,1-.6-.26L115,105.07l-11.11-7.69a2.22,2.22,0,0,1-1,.62l-14.28,3.65A4.94,4.94,0,0,0,85,106.53v9.82a2.41,2.41,0,0,0,2.31,2.51h55.38a2.41,2.41,0,0,0,2.31-2.51v-9.82A4.94,4.94,0,0,0,141.44,101.65Z"/><path class="d907ea52-fbab-4b28-916e-cd18ad2b3e86" d="M103.54,94.75,115,105.07a43.36,43.36,0,0,0-7.17,4.88,1.61,1.61,0,0,1-2.49-.56L100,97.54,101.66,95A1.25,1.25,0,0,1,103.54,94.75Z"/><path class="d907ea52-fbab-4b28-916e-cd18ad2b3e86" d="M126.46,94.75,115,105.07a43.36,43.36,0,0,1,7.17,4.88,1.61,1.61,0,0,0,2.49-.56l5.39-11.85L128.34,95A1.25,1.25,0,0,0,126.46,94.75Z"/><path class="2376f624-268b-4e58-8a1a-8fed88e3636d" d="M131.21,72.47h0a2.45,2.45,0,0,0-.48,0l.57-12.58H98.7l.57,12.58a2.45,2.45,0,0,0-.48,0h0a2.59,2.59,0,0,0-2.52,3.22l1.42,5.67a1.5,1.5,0,0,0,1.46,1.14,1.57,1.57,0,0,0,.57-.12L99.79,84a7.54,7.54,0,0,0,3,5.67L108,93.53A7.49,7.49,0,0,0,112.49,95h5A7.49,7.49,0,0,0,122,93.53l5.19-3.89a7.54,7.54,0,0,0,3-5.67l.07-1.59a1.57,1.57,0,0,0,.57.12,1.5,1.5,0,0,0,1.46-1.14l1.42-5.67A2.59,2.59,0,0,0,131.21,72.47Z"/><path class="6df2eb06-7758-4956-a4d7-0a653e9ae623" d="M122.6,51.62l1.18,8.31c5.36,1.07,6.14,9.49,6.25,11.9a2.55,2.55,0,0,0,.39,1.22l2.05,3.18s-.7-5.25,2.51-8.78C135,67.45,136.08,46.6,122.6,51.62Z"/><path class="0f6158fb-675e-4538-8b7d-b6d796297677" d="M99.9,49.37l1.86,1.27c-8.39,6.19-6.82,16.81-6.82,16.81,2.51,2.51,2.51,8.78,2.51,8.78l2.5-2.51s-1-7.24,3.77-10c4.38-2.59,8.22-1.26,12.14-1.26,10.5,0,13.44-4,12.93-8.77-.26-2.5-4.07-7.69-13.79-7.53C111.08,46.2,103.71,47.39,99.9,49.37Z"/><path class="0f6158fb-675e-4538-8b7d-b6d796297677" d="M35,46.07c-25.6,0-22.77,31.13-22.65,53.7a2.42,2.42,0,0,0,1.18,2.06A42.46,42.46,0,0,0,35,107.54a42.46,42.46,0,0,0,21.47-5.71,2.42,2.42,0,0,0,1.18-2.06C57.77,77.2,60.6,46.07,35,46.07Z"/><path class="67e3ff85-0f64-45b5-aaf3-37cc2bb64c0d" d="M33.35,46.13c-23.81,1.34-21.11,31.58-21,53.64a2.42,2.42,0,0,0,1.18,2.06A42.46,42.46,0,0,0,35,107.54l6.47-45.3"/><path class="0f6158fb-675e-4538-8b7d-b6d796297677" d="M35,46.07c-14.56,0-15.57,17.59-15.57,17.59,8.39-1.42,13.55,2.12,22-1.42L35,107.54a42.46,42.46,0,0,0,21.47-5.71,2.42,2.42,0,0,0,1.18-2.06C57.77,77.2,60.6,46.07,35,46.07Z"/><path class="2376f624-268b-4e58-8a1a-8fed88e3636d" d="M59.51,104.68l-14.43-6a3.23,3.23,0,0,1-2-3V91.76H26.91v3.91a3.23,3.23,0,0,1-2,3l-14.43,6a4.85,4.85,0,0,0-3,4.47v6.48a3.24,3.24,0,0,0,3.24,3.23H59.26a3.24,3.24,0,0,0,3.24-3.23v-6.48A4.85,4.85,0,0,0,59.51,104.68Z"/><path class="48241db9-a357-4fbe-82ff-3532d59ae6cd" d="M59.51,104.68,45.56,98.86,35,103.42,24.44,98.86l-13.95,5.82a4.85,4.85,0,0,0-3,4.47v6.48a3.24,3.24,0,0,0,3.24,3.23H59.26a3.24,3.24,0,0,0,3.24-3.23v-6.48A4.85,4.85,0,0,0,59.51,104.68Z"/><path class="6dbb8af4-d76d-4a86-86d2-39c57469e296" d="M35,115.63h0A1.63,1.63,0,0,1,33.38,114V103.42h3.24V114A1.63,1.63,0,0,1,35,115.63Z"/><path class="6dbb8af4-d76d-4a86-86d2-39c57469e296" d="M35,103.42l-9.26-7a1.29,1.29,0,0,0-1.85.32l-1.83,2.74,5.68,8a1.3,1.3,0,0,0,1.86.26Z"/><path class="6dbb8af4-d76d-4a86-86d2-39c57469e296" d="M35,103.42l9.26-7a1.29,1.29,0,0,1,1.85.32l1.83,2.74-5.68,8a1.3,1.3,0,0,1-1.86.26Z"/><path class="cd43a2ab-f4a1-4b0d-95e3-6dd7dc313b71" d="M43.09,60.63c-8.09,8.08-24,1.61-24,14.55l1,9.54a6.49,6.49,0,0,0,3.3,5.07l9.21,5.11a4.84,4.84,0,0,0,4.72,0l9.21-5.11a6.47,6.47,0,0,0,3.3-5.07L51,73.4A17.94,17.94,0,0,0,51.1,71C50.5,66.86,44.71,63.86,43.09,60.63Z"/><polygon class="a8c6a82a-6231-45e3-88f6-0db4f6307038" points="131.57 25.5 124.5 18.43 75 67.93 25.5 18.43 18.43 25.5 67.93 75 18.43 124.5 25.5 131.57 75 82.07 124.5 131.57 131.57 124.5 82.07 75 131.57 25.5"/><polygon class="2376f624-268b-4e58-8a1a-8fed88e3636d" points="88.85 103.71 88.85 92.94 61.15 92.94 61.15 103.71 75 116.02 88.85 103.71"/><path class="cd43a2ab-f4a1-4b0d-95e3-6dd7dc313b71" d="M94.89,72.94h0a2.88,2.88,0,0,0-.59.06L95,57.56H55L55.7,73a2.81,2.81,0,0,0-.59-.06h0a3.19,3.19,0,0,0-3.09,4l1.74,6.95a1.84,1.84,0,0,0,1.79,1.4,1.78,1.78,0,0,0,.7-.14l.09,1.94A9.27,9.27,0,0,0,60,94l6.36,4.77a9.25,9.25,0,0,0,5.54,1.85h6.16a9.25,9.25,0,0,0,5.54-1.85L90,94a9.27,9.27,0,0,0,3.68-7l.09-1.94a1.78,1.78,0,0,0,.7.14,1.84,1.84,0,0,0,1.79-1.4L98,76.9A3.19,3.19,0,0,0,94.89,72.94Z"/><path class="19b83b8f-2f58-401e-8e35-7fa739f6c948" d="M110.26,108.75l-19-4.48a3.11,3.11,0,0,1-.8-.32l-15.42,9-14.82-9.42a3.07,3.07,0,0,1-1.4.75l-19,4.48a6.16,6.16,0,0,0-4.74,6v12.05a3.08,3.08,0,0,0,3.08,3.08h73.84a3.08,3.08,0,0,0,3.08-3.08V114.74A6.16,6.16,0,0,0,110.26,108.75Z"/><polygon class="9a020ea1-5afc-494e-86a6-8ec7add27ff9" points="78.85 129.87 71.15 129.87 72.12 116.02 77.89 116.02 78.85 129.87"/><path class="cbd05a0b-e1af-41d3-9a93-a0debb0d8808" d="M78.85,112.94h-7.7v2.9a1.72,1.72,0,0,0,1.72,1.72h4.26a1.72,1.72,0,0,0,1.72-1.72v-2.9Z"/><path class="d4c78445-1dfc-44b6-b746-016375055092" d="M60.94,100.29,75,112.94a53.05,53.05,0,0,0-8.8,6,2,2,0,0,1-3.05-.69l-6.61-14.54,2.09-3.13A1.54,1.54,0,0,1,60.94,100.29Z"/><path class="d4c78445-1dfc-44b6-b746-016375055092" d="M89.06,100.29,75,112.94a53.05,53.05,0,0,1,8.8,6,2,2,0,0,0,3.06-.69l6.6-14.54-2.09-3.13A1.54,1.54,0,0,0,89.06,100.29Z"/><path class="b668749c-9a6d-4f6e-a042-9d985ad1787f" d="M84.33,47.37l1.44,10.19c6.58,1.32,7.53,11.65,7.67,14.6a3,3,0,0,0,.48,1.5l2.52,3.9s-.86-6.44,3.07-10.77C99.51,66.79,100.87,41.21,84.33,47.37Z"/><path class="3ee043cb-e712-4b6d-878a-b4961e41691d" d="M56.47,44.61l2.28,1.56c-10.29,7.59-8.37,20.62-8.37,20.62,3.08,3.08,3.08,10.77,3.08,10.77l3.08-3.08s-1.19-8.89,4.61-12.3c5.39-3.18,10.1-1.54,14.91-1.54,12.88,0,16.49-4.86,15.86-10.77-.32-3.06-5-9.44-16.92-9.23C70.19,40.72,61.15,42.18,56.47,44.61Z"/><path class="d4c78445-1dfc-44b6-b746-016375055092" d="M95,126.79H84.23a1.54,1.54,0,0,0-1.54,1.54v1.54H96.54v-1.54A1.54,1.54,0,0,0,95,126.79Z"/></svg>