<svg id="7dc2909e-5a28-4028-b357-6943f0f9773c" data-name="圖層 2" xmlns="http://www.w3.org/2000/svg" viewBox="0 0 150 150"><defs><style>.\30 726986e-e77d-4a1a-9cdc-73bdd97c3ef7,.bd724176-e6ec-44f0-93e4-78221c22b67f{fill:#e51f58;}.bd724176-e6ec-44f0-93e4-78221c22b67f{opacity:0.1;}.\39 e4df377-a2a9-49d0-8f4b-61809fd39745{fill:#b1125b;}.\31 0bfe925-1d7d-42f9-8031-4f9620b6862e{fill:#7d2062;}</style></defs><title>pain01</title><path class="bd724176-e6ec-44f0-93e4-78221c22b67f" d="M75,140c35.81,0,64.83-40.8,64.83-76.61S102.88,10,67.07,10s-56.9,17.59-56.9,53.39S39.19,140,75,140Z"/><path class="0726986e-e77d-4a1a-9cdc-73bdd97c3ef7" d="M39.92,58.72v64.36H21.46V40Zm3.7,3.75v60.61H62.08V80.72Zm66.46,22v38.62h18.46V103.19ZM65.77,77v46.1H84.23V58.25ZM87.92,62v61.08h18.46V80.72Z"/><path class="9e4df377-a2a9-49d0-8f4b-61809fd39745" d="M132.23,120.31H113.77V88.21l-3.69-3.75v35.85H91.62V65.74L87.92,62v58.31H69.46V73.23L65.77,77v43.33H47.31V66.12l-3.69-3.65v57.84H25.15V43.74L21.46,40v80.31H17.77a2.77,2.77,0,0,0,0,5.54H132.23a2.77,2.77,0,1,0,0-5.54Z"/><path class="10bfe925-1d7d-42f9-8031-4f9620b6862e" d="M134.4,90.67,128.54,76l-2,4.79L85.22,38.82a1.43,1.43,0,0,0-2,0L61.85,60.52,22.45,20.57a1.38,1.38,0,1,0-2,1.94l40.38,41a1.42,1.42,0,0,0,2,0l21.4-21.7,40.36,40.93-4.81,1.91Z"/></svg>