<svg id="3d83ac7a-8dbf-4f6d-8e69-2170a3ba8b6a" data-name="圖層 2" xmlns="http://www.w3.org/2000/svg" viewBox="0 0 150 150"><defs><style>.\35 ab22a09-aa90-4bd0-8f57-874f48cd62db,.e71fe5fa-2a75-4f0d-a5f5-4a83b3d1bcfd{fill:#e51f58;}.\35 ab22a09-aa90-4bd0-8f57-874f48cd62db{opacity:0.1;}.\30 0ad6568-3b80-43a7-978d-0c7191145fd8{fill:#4f2453;}.\36 fbcf0f6-5faf-4707-a581-25223006a7bf{fill:#7d2062;}</style></defs><title>pain02</title><path class="5ab22a09-aa90-4bd0-8f57-874f48cd62db" d="M136,135.16c30.79,0-2.57-37.13-2.57-67.92s7-52.4-23.78-52.4S1,71.32,1,102.11s104.16,33.05,135,33.05Z"/><path class="e71fe5fa-2a75-4f0d-a5f5-4a83b3d1bcfd" d="M75,33.86A41.67,41.67,0,1,1,33.33,75.53,41.71,41.71,0,0,1,75,33.86m0-8.33a50,50,0,1,0,50,50,50,50,0,0,0-50-50Z"/><path class="00ad6568-3b80-43a7-978d-0c7191145fd8" d="M117.27,103.1l5.74-.82a1.61,1.61,0,0,0,1.49-1.61l0-3.84a1.63,1.63,0,0,0-1.06-1.51,1.5,1.5,0,0,0-.43-.09l-5.73-.86a1,1,0,0,1-.25-.05,1,1,0,0,1-.55-.53l-1.85-4.51a1,1,0,0,1,.15-1l3.46-4.59a1.62,1.62,0,0,0-.08-2.19l-2.7-2.72a1.84,1.84,0,0,0-.59-.39,1.62,1.62,0,0,0-1.6.29l-4.63,3.42a.92.92,0,0,1-.94.17h0l-4.48-1.89a1,1,0,0,1-.59-.8l-.81-5.75a1.64,1.64,0,0,0-1.06-1.39,1.84,1.84,0,0,0-.53-.1H96.36a1.6,1.6,0,0,0-1.61,1.47l-.86,5.75a.94.94,0,0,1-.59.8l-4.49,1.85a1.09,1.09,0,0,1-.69,0,.83.83,0,0,1-.3-.18l-4.6-3.43a1.52,1.52,0,0,0-.5-.3,1.62,1.62,0,0,0-1.68.36l-2.73,2.71a1.61,1.61,0,0,0-.09,2.18l3.42,4.63a1,1,0,0,1,.15,1l-1.88,4.47a1,1,0,0,1-.81.6l-5.74.8a1.6,1.6,0,0,0-1.49,1.6l0,3.85A1.65,1.65,0,0,0,72.92,102a1.42,1.42,0,0,0,.41.08l5.75.87a.64.64,0,0,1,.24,0,1,1,0,0,1,.56.54l1.85,4.5a1,1,0,0,1-.17,1l-3.44,4.6a1.62,1.62,0,0,0,.08,2.19l2.7,2.71a1.56,1.56,0,0,0,.59.39,1.59,1.59,0,0,0,1.6-.29l4.61-3.41a1,1,0,0,1,.94-.17l.06,0,4.47,1.87a1,1,0,0,1,.6.81l.8,5.74a1.62,1.62,0,0,0,1.06,1.41,1.64,1.64,0,0,0,.54.08l3.85,0a1.6,1.6,0,0,0,1.6-1.49l.86-5.72a1,1,0,0,1,.58-.81l4.51-1.85a.91.91,0,0,1,.69,0,1.4,1.4,0,0,1,.29.16l4.6,3.46a1.71,1.71,0,0,0,.5.3,1.61,1.61,0,0,0,1.68-.38l2.74-2.71a1.59,1.59,0,0,0,.07-2.18l-3.4-4.63a.93.93,0,0,1-.15-1l1.87-4.49A1,1,0,0,1,117.27,103.1ZM104.48,105a8.93,8.93,0,1,1-3.25-14.72A8.93,8.93,0,0,1,104.48,105Z"/><path class="6fbcf0f6-5faf-4707-a581-25223006a7bf" d="M87.63,42.27,80.24,43.8A1.23,1.23,0,0,1,79,43.44l-4.27-4.66a1.24,1.24,0,0,1-.26-1.27l2.15-7.16a2.11,2.11,0,0,0-1.07-2.65L71,25.6a2.08,2.08,0,0,0-2.7.87l-4.12,6.24a1.21,1.21,0,0,1-.66.56,1.46,1.46,0,0,1-.48.08l-6.32-.28a1.24,1.24,0,0,1-1.07-.72l-3.57-6.66a2.1,2.1,0,0,0-2.62-1.09l-4.71,1.71a2.1,2.1,0,0,0-1.3,2.53L45,36.23a1.23,1.23,0,0,1-.36,1.24L40,41.74a1.07,1.07,0,0,1-.42.25,1.16,1.16,0,0,1-.86,0l-7.17-2.13a2.07,2.07,0,0,0-1.45,0,2.13,2.13,0,0,0-1.18,1.09l-2.12,4.52a2.12,2.12,0,0,0,.88,2.72l6.25,4.12a1.21,1.21,0,0,1,.62,1.12l-.28,6.32a1.22,1.22,0,0,1-.72,1.07l-6.65,3.59A2.09,2.09,0,0,0,25.78,67l1.7,4.69A2.09,2.09,0,0,0,30,73l7.39-1.53a1.24,1.24,0,0,1,1.25.35l4.27,4.67a1.26,1.26,0,0,1,.26,1.27L41,84.94a2.1,2.1,0,0,0,1.07,2.64l4.54,2.11a2.07,2.07,0,0,0,1.6.07,2.1,2.1,0,0,0,1.1-.94l4.12-6.25a1.25,1.25,0,0,1,.66-.56,1.42,1.42,0,0,1,.48-.08l6.32.28a1.24,1.24,0,0,1,1.07.73l3.57,6.64a2.09,2.09,0,0,0,2.63,1.11L72.89,89a2.09,2.09,0,0,0,1.3-2.54l-1.54-7.38A1.26,1.26,0,0,1,73,77.81l4.66-4.28a1.38,1.38,0,0,1,.42-.24,1.21,1.21,0,0,1,.86,0l7.17,2.14a2.07,2.07,0,0,0,2.63-1.06l2.12-4.54A2.1,2.1,0,0,0,90,67.12L83.74,63a1.28,1.28,0,0,1-.62-1.15l.28-6.31a1.22,1.22,0,0,1,.72-1.08l6.65-3.58a2.08,2.08,0,0,0,1.09-2.62l-1.7-4.69A2.1,2.1,0,0,0,87.63,42.27ZM69.35,62.55a11.56,11.56,0,0,1-6.52,6h0a11.61,11.61,0,0,1-8-21.81h.07a11.49,11.49,0,0,1,8.84.39,11.61,11.61,0,0,1,5.63,15.44Z"/><rect class="e71fe5fa-2a75-4f0d-a5f5-4a83b3d1bcfd" x="27.17" y="71.18" width="95.65" height="8.7" transform="translate(-31.44 75.15) rotate(-45)"/></svg>