<svg xmlns="http://www.w3.org/2000/svg" xmlns:xlink="http://www.w3.org/1999/xlink" viewBox="0 0 150 150"><defs><style>.\30 fea19cc-dfc4-4cb8-bf93-4845cd5028d3{fill:url(#f82973cf-61ef-4bd9-92aa-6f76f4f3a8ac);}.\31 6ecc31e-4e95-4cae-90cb-f0527a626eba{fill:#4f2453;}.fe1e5dae-ce7a-4918-8983-563efad3fe0c{fill:#b1125b;}.e1430330-f265-4a38-ae14-5d4180a50900{fill:#e51f58;}.\33 72b089e-49f9-47a4-8e77-7a32d2f64b45{fill:url(#47c4bb59-d719-47a7-b6a7-815276269dcb);}.f2a3b6c8-5812-4b9e-8f5d-75a1805a9e15{fill:#18112c;}</style><linearGradient id="f82973cf-61ef-4bd9-92aa-6f76f4f3a8ac" x1="77.06" y1="68.38" x2="77.06" y2="17.67" gradientUnits="userSpaceOnUse"><stop offset="0" stop-color="#4f2453"/><stop offset="1" stop-color="#b2125b"/></linearGradient><linearGradient id="47c4bb59-d719-47a7-b6a7-815276269dcb" x1="87.86" y1="63.41" x2="61.65" y2="18.02" gradientUnits="userSpaceOnUse"><stop offset="0" stop-color="#7d2062"/><stop offset="1" stop-color="#e61f58"/></linearGradient></defs><title>project_management</title><g id="8d5d3325-2a22-4088-a7fd-df4748024c18" data-name="FINAL"><g id="68a933be-1eed-4d51-95e0-a400448cac01" data-name="project_management"><path id="cc0a7b44-0b67-48b9-a689-244d609046a2" data-name="s-shadow" class="0fea19cc-dfc4-4cb8-bf93-4845cd5028d3" d="M109.5,17.67a5.23,5.23,0,0,1,.72,2.67V61.1a5.34,5.34,0,0,1-5.34,5.33H44.64A5.29,5.29,0,0,1,42,65.71a5.36,5.36,0,0,0,4.62,2.67h60.24A5.35,5.35,0,0,0,112.17,63V22.28A5.33,5.33,0,0,0,109.5,17.67Z"/><rect id="28ac85d8-d020-429e-9e02-fcd6a1909f86" data-name="r-box-l" class="16ecc31e-4e95-4cae-90cb-f0527a626eba" x="103.91" y="98.95" width="29.15" height="29.11" rx="1.94" ry="1.94"/><rect id="ecb0fe64-7602-49bc-b76f-28576f15a782" data-name="r-box-m" class="fe1e5dae-ce7a-4918-8983-563efad3fe0c" x="60.18" y="98.95" width="29.15" height="29.11" rx="1.94" ry="1.94"/><rect id="22cb760c-ba02-42b0-9a3a-a0805bca81ef" data-name="r-box-s" class="e1430330-f265-4a38-ae14-5d4180a50900" x="16.46" y="98.95" width="29.15" height="29.11" rx="1.94" ry="1.94"/><path id="49d52d36-7342-49b6-885c-ed9450087450" data-name="s-code" class="372b089e-49f9-47a4-8e77-7a32d2f64b45" d="M99.05,27.62H50.47a1.46,1.46,0,0,1,0-2.92H99.05a1.46,1.46,0,1,1,0,2.92Zm-4.62,8.24A1.45,1.45,0,0,0,93,34.41H50.47a1.46,1.46,0,1,0,0,2.91H93A1.45,1.45,0,0,0,94.43,35.86ZM82.29,45.57a1.46,1.46,0,0,0-1.46-1.46H50.47a1.46,1.46,0,1,0,0,2.92H80.83A1.46,1.46,0,0,0,82.29,45.57Zm18.22,0a1.47,1.47,0,0,0-1.46-1.46H86.9a1.46,1.46,0,0,0,0,2.92H99.05A1.47,1.47,0,0,0,100.51,45.57Zm0,9.7a1.46,1.46,0,0,0-1.46-1.45H68.68a1.46,1.46,0,0,0,0,2.91H99.05A1.46,1.46,0,0,0,100.51,55.27Zm-36.44,0a1.45,1.45,0,0,0-1.46-1.45H50.47a1.46,1.46,0,1,0,0,2.91H62.61A1.46,1.46,0,0,0,64.07,55.27Zm36.44-19.44a1.42,1.42,0,1,1-1.42-1.42A1.43,1.43,0,0,1,100.51,35.83Z"/><path id="5d2e442b-c275-4503-9cd7-6239bdf59fe0" data-name="s-frame" class="f2a3b6c8-5812-4b9e-8f5d-75a1805a9e15" d="M104.88,66.43H44.64a5.35,5.35,0,0,1-5.35-5.33V20.34A5.35,5.35,0,0,1,44.64,15h60.24a5.34,5.34,0,0,1,5.34,5.34V61.1A5.34,5.34,0,0,1,104.88,66.43ZM44.64,17.91a2.43,2.43,0,0,0-2.43,2.43V61.1a2.42,2.42,0,0,0,2.43,2.42h60.24a2.42,2.42,0,0,0,2.43-2.42V20.34a2.43,2.43,0,0,0-2.43-2.43Zm-1,79.58H18.4a3.4,3.4,0,0,0-3.4,3.4v25.23a3.4,3.4,0,0,0,3.4,3.39H43.66a3.4,3.4,0,0,0,3.4-3.39V100.89A3.4,3.4,0,0,0,43.66,97.49Zm.49,20.26-8.86,8.85h-5.6l14.46-14.44Zm-26.24-8.5,8.87-8.85h5.59L17.91,114.84Zm0,9.71L36.49,100.4h5.6L17.91,124.55Zm26.24-16.5v5.59L25.57,126.6H20ZM18.4,100.4h4.26l-4.75,4.74v-4.25A.49.49,0,0,1,18.4,100.4Zm25.26,26.2H39.41l4.74-4.73v4.25A.48.48,0,0,1,43.66,126.6ZM131.11,97H105.85a3.9,3.9,0,0,0-3.89,3.89v25.23a3.89,3.89,0,0,0,3.89,3.88h25.26a3.89,3.89,0,0,0,3.89-3.88V100.89A3.89,3.89,0,0,0,131.11,97Zm-25.74,29.64V100.4H131.6l-.13,26.2Zm15.54-13.14a2.43,2.43,0,1,1-2.43-2.42A2.43,2.43,0,0,1,120.91,113.5Zm0,7.28a2.43,2.43,0,1,1-2.43-2.43A2.43,2.43,0,0,1,120.91,120.78Zm-7.29-14.56a2.43,2.43,0,1,1-2.43-2.42A2.43,2.43,0,0,1,113.62,106.22Zm0,7.28a2.43,2.43,0,1,1-2.43-2.42A2.43,2.43,0,0,1,113.62,113.5Zm0,7.28a2.43,2.43,0,1,1-2.43-2.43A2.43,2.43,0,0,1,113.62,120.78Zm14.58-7.28a2.43,2.43,0,1,1-2.43-2.42A2.43,2.43,0,0,1,128.2,113.5Zm0-7.28a2.43,2.43,0,1,1-2.43-2.42A2.43,2.43,0,0,1,128.2,106.22Zm-7.29,0a2.43,2.43,0,1,1-2.43-2.42A2.43,2.43,0,0,1,120.91,106.22Zm7.29,14.56a2.43,2.43,0,1,1-2.43-2.43A2.43,2.43,0,0,1,128.2,120.78ZM87.39,97.49H62.13a3.41,3.41,0,0,0-3.41,3.4v25.23a3.4,3.4,0,0,0,3.41,3.39H87.39a3.4,3.4,0,0,0,3.4-3.39V100.89A3.4,3.4,0,0,0,87.39,97.49Zm-14.69,16-11.06,11V102.46Zm-9-13.1H85.81l-11,11Zm11.06,15.16,11,11H63.7Zm2.06-2.06,11.05-11v22.08ZM49.49,82A1.45,1.45,0,0,1,48,83.42H32.49v9.7a1.46,1.46,0,1,1-2.92,0V82A1.46,1.46,0,0,1,31,80.51H48A1.45,1.45,0,0,1,49.49,82Zm70.45,0V93.12a1.46,1.46,0,1,1-2.92,0v-9.7H76.21v9.7a1.46,1.46,0,1,1-2.91,0v-9.7H57.75a1.46,1.46,0,0,1,0-2.91H73.3V72.74a1.46,1.46,0,0,1,2.91,0v7.77h42.27A1.45,1.45,0,0,1,119.94,82ZM54.31,82a1.42,1.42,0,1,1-1.42-1.42A1.42,1.42,0,0,1,54.31,82Z"/></g></g></svg>