<svg xmlns="http://www.w3.org/2000/svg" xmlns:xlink="http://www.w3.org/1999/xlink" viewBox="0 0 150 150"><defs><style>.\33 681e518-f807-4276-a384-09376700a775{fill:url(#ea5483c4-c713-4dbb-85c0-14dfab5161fe);}.\39 b19517c-5e89-4c7b-9d02-9d1f9d6cc784{fill:#e51f58;}.\31 efad40f-6a13-438e-a6dd-75555a09e3ea{fill:#18112c;}</style><linearGradient id="ea5483c4-c713-4dbb-85c0-14dfab5161fe" x1="104.93" y1="62.53" x2="74.88" y2="10.47" gradientUnits="userSpaceOnUse"><stop offset="0" stop-color="#7d2062"/><stop offset="1" stop-color="#e61f58"/></linearGradient></defs><title>practical_experience</title><g id="128db505-54d7-4257-8a12-45016772060a" data-name="FINAL"><g id="2497c5d8-8b34-4c08-af97-b0f3c9548813" data-name="practical_experience"><path id="df62a33e-dfb5-401b-819a-c647fb760096" data-name="s-flag" class="3681e518-f807-4276-a384-09376700a775" d="M109.06,35.83,118,18H61.83V55H73.9V48.57A5.58,5.58,0,0,1,79.47,43H95.33a5.58,5.58,0,0,1,5.57,5.57V55H118l-8.92-17.83A1.5,1.5,0,0,1,109.06,35.83ZM93.4,34.32A5.69,5.69,0,0,1,87.72,40h-.64a5.69,5.69,0,0,1-5.68-5.68V31.88a5.69,5.69,0,0,1,5.68-5.68h.64a5.69,5.69,0,0,1,5.68,5.68ZM87.4,51a1.5,1.5,0,0,1-1.5-1.5v-8a1.5,1.5,0,0,1,3,0v8A1.5,1.5,0,0,1,87.4,51Z"/><path id="413f6a88-7d46-4b72-98d2-9c71f320b890" data-name="s-deco" class="9b19517c-5e89-4c7b-9d02-9d1f9d6cc784" d="M36,119.17a1.5,1.5,0,0,1-1.26-2.31L50.73,92a1.5,1.5,0,1,1,2.52,1.62l-16,24.87A1.5,1.5,0,0,1,36,119.17ZM54.77,87a1.43,1.43,0,1,0,1.42,1.43A1.43,1.43,0,0,0,54.77,87Z"/><path id="266e7a12-bbf8-4830-8380-3ef2cac1f6bf" data-name="s-frame" class="1efad40f-6a13-438e-a6dd-75555a09e3ea" d="M134.76,132.69l-18.17-28.27a1.5,1.5,0,0,0-2.53,1.62l16.69,26H105L89.13,107.29l12.87-20,6.63,10.31A1.5,1.5,0,0,0,111.15,96l-7.89-12.27a1.55,1.55,0,0,0-2.52,0L87.35,104.51,61.83,64.81V58H120.4a1.51,1.51,0,0,0,1.28-.71,1.49,1.49,0,0,0,.06-1.46L112.08,36.5l9.66-19.33a1.49,1.49,0,0,0-.06-1.46A1.51,1.51,0,0,0,120.4,15h-60a1.47,1.47,0,0,0-1.47,1.46V64.81L15.23,132.74A1.47,1.47,0,0,0,16.46,135h117a1.49,1.49,0,0,0,1.26-2.31ZM100.9,55h-27V48.57A5.58,5.58,0,0,1,79.47,43H95.33a5.58,5.58,0,0,1,5.57,5.57ZM81.4,34.32V31.88a5.69,5.69,0,0,1,5.68-5.68h.64a5.69,5.69,0,0,1,5.68,5.68v2.44A5.69,5.69,0,0,1,87.72,40h-.64A5.69,5.69,0,0,1,81.4,34.32ZM61.83,18H118l-8.92,17.83a1.5,1.5,0,0,0,0,1.34L118,55H103.9V48.57A8.57,8.57,0,0,0,95.33,40H94.27a8.65,8.65,0,0,0,2.13-5.68V31.88a8.68,8.68,0,0,0-8.68-8.68h-.64a8.69,8.69,0,0,0-8.68,8.68v2.44A8.65,8.65,0,0,0,80.53,40H79.47a8.58,8.58,0,0,0-8.57,8.57V55H61.83ZM19.14,132.07,60.37,68l41.22,64.12Zm93.51-32.43a1.43,1.43,0,1,1-1.42,1.43A1.43,1.43,0,0,1,112.65,99.64Z"/></g></g></svg>