<svg xmlns="http://www.w3.org/2000/svg" xmlns:xlink="http://www.w3.org/1999/xlink" viewBox="0 0 150 150"><defs><style>.\31 d2e50c6-7ccb-4e4d-9499-a4a0098d4e3c{fill:#4f2453;}.\32 0f36242-c478-4ab6-b20c-5eb85cd8d128{fill:#b1125b;}.a793130b-90a6-4dfd-84a4-338db097ee31{fill:url(#57640981-c646-4c7e-b2d3-f4c43c2f0633);}.\38 ad0c1a1-bb27-498e-8f6f-72ea5a1930a9{fill:#18112c;}</style><linearGradient id="57640981-c646-4c7e-b2d3-f4c43c2f0633" x1="97.6" y1="125.98" x2="62.56" y2="65.3" gradientUnits="userSpaceOnUse"><stop offset="0" stop-color="#7d2062"/><stop offset="1" stop-color="#e61f58"/></linearGradient></defs><title>resume_writing</title><g id="a81a5844-b8f4-4578-9703-4fb60101bf7a" data-name="FINAL"><g id="26e788ce-2036-4420-bc58-cae956980f67" data-name="resume_writing"><path class="1d2e50c6-7ccb-4e4d-9499-a4a0098d4e3c" d="M105,126.54v3a2.5,2.5,0,0,1-2.5,2.5H97.43l4.46-5.46H98L93.55,132H87l4.46-5.46H87.56L83.09,132H76.51L81,126.54H77.1L72.64,132H66.06l4.46-5.46H66.64L62.18,132H55.6l4.46-5.46H56.19L51.72,132H45.14l4.47-5.46H45.73L41.27,132H34.69l4.46-5.46h-.07a4,4,0,0,1-2.83-1.18L30.81,132H24.23l10.85-13.27V114L20.36,132A2.51,2.51,0,0,1,18,129.5v-2.67L35.08,106v-4.74L18,122.1v-8L35.08,93.17V88.43L18,109.32v-8L35.08,80.39V75.65L18,96.54V88.49L35.08,67.61V62.87L18,83.76V75.71L35.08,54.83V50.09L18,71V62.93L35.08,42.05V37.31L18,58.2V50.15L35.08,29.27V22H20.5A5.51,5.51,0,0,0,15,27.5v102a5.51,5.51,0,0,0,5.5,5.5h82a5.51,5.51,0,0,0,5.5-5.5v-3Zm-87-99A2.5,2.5,0,0,1,20.5,25h3.75L18,32.64Zm0,9.87L28.12,25H34.7L18,45.42Z"/><path id="4abb0704-6da2-441e-a4e1-f9d62872f810" data-name="s-deco" class="20f36242-c478-4ab6-b20c-5eb85cd8d128" d="M60.08,52.8a1.5,1.5,0,0,1-1.5-1.5v-8a1.5,1.5,0,0,1,3,0v8A1.5,1.5,0,0,1,60.08,52.8Z"/><path id="cce0c65d-6add-4bd9-a099-277daf673cd8" data-name="s-code" class="a793130b-90a6-4dfd-84a4-338db097ee31" d="M113.63,87.39H46.54a1.46,1.46,0,0,1,0-2.92h67.09a1.46,1.46,0,0,1,0,2.92ZM109,95.64a1.46,1.46,0,0,0-1.46-1.46h-61a1.46,1.46,0,1,0,0,2.91h61A1.45,1.45,0,0,0,109,95.64Zm-30.65,9.7a1.46,1.46,0,0,0-1.45-1.46H46.54a1.46,1.46,0,0,0,0,2.92H76.91A1.46,1.46,0,0,0,78.36,105.34Zm36.72,0a1.46,1.46,0,0,0-1.45-1.46H83a1.46,1.46,0,0,0,0,2.92h30.65A1.46,1.46,0,0,0,115.08,105.34Zm0,9.7a1.45,1.45,0,0,0-1.45-1.45H64.76a1.46,1.46,0,1,0,0,2.91h48.87A1.45,1.45,0,0,0,115.08,115Zm-54.93,0a1.46,1.46,0,0,0-1.46-1.45H46.54a1.46,1.46,0,1,0,0,2.91H58.69A1.46,1.46,0,0,0,60.15,115ZM115.08,95.6a1.42,1.42,0,1,1-1.41-1.42A1.42,1.42,0,0,1,115.08,95.6Zm0-19.35a1.45,1.45,0,0,0-1.45-1.46h-61a1.46,1.46,0,1,0,0,2.91h61A1.45,1.45,0,0,0,115.08,76.25Zm-67.16,0a1.42,1.42,0,1,1-1.42-1.43A1.42,1.42,0,0,1,47.92,76.22Z"/><path class="8ad0c1a1-bb27-498e-8f6f-72ea5a1930a9" d="M121.65,128a5.5,5.5,0,0,0,4.93-5.47V20.58a5.5,5.5,0,0,0-5.5-5.5h-82a5.51,5.51,0,0,0-5.5,5.5V122.5a5.46,5.46,0,0,0,0,.58v0a4.34,4.34,0,0,0,.09.52v0c0,.17.09.34.14.51h0a5.43,5.43,0,0,0,1.46,2.29h0A5.48,5.48,0,0,0,38,127.9h0a6,6,0,0,0,1,.1Zm1.93-5.47a2.5,2.5,0,0,1-2.5,2.5h-82a2.51,2.51,0,0,1-2.5-2.5V20.5a2.51,2.51,0,0,1,2.5-2.5h82a2.5,2.5,0,0,1,2.5,2.5ZM68,41.8H67a8.6,8.6,0,0,0,2.13-5.68V33.68A8.68,8.68,0,0,0,60.4,25h-.63a8.69,8.69,0,0,0-8.69,8.68v2.44a8.61,8.61,0,0,0,2.14,5.68H52.16a8.58,8.58,0,0,0-8.58,8.57V64.8h33V50.37A8.57,8.57,0,0,0,68,41.8ZM54.08,33.68A5.69,5.69,0,0,1,59.77,28h.63a5.68,5.68,0,0,1,5.68,5.68v2.44A5.68,5.68,0,0,1,60.4,41.8h-.63a5.69,5.69,0,0,1-5.69-5.68ZM73.58,61.8h-27V50.37a5.58,5.58,0,0,1,5.58-5.57H68a5.57,5.57,0,0,1,5.57,5.57Zm10,3h33V25h-33Zm4.66-3,11.84-14.53L111.93,61.8Zm25.34-2.72L102,44.9l11.56-14.19ZM111.93,28,100.08,42.52,88.24,28ZM86.58,30.71,98.15,44.9,86.58,59.08Z"/></g></g></svg>