<?xml version="1.0" encoding="utf-8"?>
<!-- Generator: Adobe Illustrator 22.1.0, SVG Export Plug-In . SVG Version: 6.00 Build 0)  -->
<svg version="1.1" id="圖層_1" xmlns="http://www.w3.org/2000/svg" xmlns:xlink="http://www.w3.org/1999/xlink" x="0px" y="0px"
	 viewBox="0 0 480 480" style="enable-background:new 0 0 480 480;" xml:space="preserve">
<style type="text/css">
	.st0{fill:#DBDBDB;}
	.st1{fill:#F4F4F4;}
	.st2{fill:#EBEBEB;}
	.st3{fill:#FFFFFF;}
</style>
<path class="st0" d="M239.8,408.8L125.6,377L100,91.2h280L354.5,377L239.8,408.8L239.8,408.8z"/>
<path class="st1" d="M332.7,358.7l21.8-244.3H240.1v270L332.7,358.7L332.7,358.7z"/>
<path class="st2" d="M158.5,220.5l3.2,35h78.4v-35H158.5L158.5,220.5z M152.2,149.7l3.2,35h84.7v-35H152.2L152.2,149.7z
	 M240.1,311.6L240.1,311.6l-39.2-10.5l-2.5-28h-35.1l4.9,55l71.8,20h0.1L240.1,311.6L240.1,311.6z"/>
<path class="st3" d="M321.4,220.5l6.3-70.9h-87.8v35.1h49.4l-3.2,35.9h-46.2v35H283l-4.1,45.5l-39.1,10.5V348l71.9-19.9l0.6-6
	l8.2-92.3L321.4,220.5L321.4,220.5z"/>
</svg>
