<?xml version="1.0" encoding="utf-8"?>
<!-- Generator: Adobe Illustrator 22.1.0, SVG Export Plug-In . SVG Version: 6.00 Build 0)  -->
<svg version="1.1" id="圖層_1" xmlns="http://www.w3.org/2000/svg" xmlns:xlink="http://www.w3.org/1999/xlink" x="0px" y="0px"
	 viewBox="0 0 480 480" style="enable-background:new 0 0 480 480;" xml:space="preserve">
<style type="text/css">
	.st0{fill:#DBDBDB;}
</style>
<path class="st0" d="M212.8,265.2c0,0,16.8-1.4,16.8-23.2s-20.3-23.7-20.3-23.7h-36.6v68.4h18.5v-16.5l15.9,16.5h27.2L212.8,265.2z
	 M205.7,251.2h-14.7v-15.6h14.7c0,0,4.1,1.5,4.1,7.7C210,249.5,205.7,251.2,205.7,251.2z M275,218.9h-18.6
	c-13.3,0-17.8,12-17.8,17.8v50h18.6v-11.9h17.5v11.9h18.1v-50C292.8,222.2,279.6,218.9,275,218.9z M274.7,255.5h-17.6v-16.6
	c0,0,0-3.7,5.9-3.7h6.4c5.2,0,5.2,3.7,5.2,3.7L274.7,255.5L274.7,255.5z M301.4,218.9h19.4v67.8h-19.4V218.9z M348.1,269.3v-50.4
	h-19.4v50.3v17.5h19.4h26.1v-17.5L348.1,269.3L348.1,269.3z M380.7,269.4v17.3h31.4c6.4,0,17.5-4.7,17.8-17.8v-6.7
	c0-11.2-9.2-17.8-17.8-17.8h-15.6v-8.1h31v-17.5h-29.8c-7.7,0-17.9,6.3-17.9,18.1v6.1c0,11.8,10.2,17.8,17.9,17.8
	c21.5,0.1-5.2,0,14.7,0v8.4L380.7,269.4z M56.6,286.7h75.7c0,0-14.5-66,33.5-92.7c10.5-5.2,43.7-24.1,98.1,16.2
	c1.7-1.4,3.3-2.6,3.3-2.6s-49.8-49.8-105.3-44.2c-28,2.5-62.2,28-82.3,61.4S56.6,286.7,56.6,286.7z M214.4,168.7l0.4-6.4
	c-0.9-0.5-3.3-1.6-9.3-3.3l-0.4,6.3C208.3,166.3,211.4,167.4,214.4,168.7z M205.4,189L205,195c3.2,0.1,6.3,0.5,9.5,1.1l0.4-6
	C211.5,189.6,208.4,189.2,205.4,189z M169.8,159.1h1l-1.9-5.9c-3,0-6.1,0.2-9.2,0.6l1.9,5.6C164.4,159.2,167.1,159.1,169.8,159.1z
	 M174.4,194.4l2.3,6.6c2.7-1.4,5.6-2.5,8.3-3.3l-2.1-6.3C179.7,192.3,176.9,193.3,174.4,194.4z M131,169.2l-4.3-6.6
	c-2.4,1.3-4.9,2.6-7.5,4.1l4.3,6.7C126,171.9,128.5,170.4,131,169.2z M150.6,212.3l4.6,6.9c1.6-2.4,3.5-4.6,5.6-6.9l-4.3-6.5
	C154.3,207.9,152.3,210.1,150.6,212.3z M136.7,243.2l7.7,6.2c0.4-3.7,1.1-7.5,2-11.2l-6.9-5.5C138.3,236.2,137.4,239.7,136.7,243.2z
	 M94.7,197.7l-6.9-6c-2.5,2.4-4.9,4.8-7.1,7.2l7.3,6.3C90.2,202.6,92.4,200,94.7,197.7z M65.8,240.5l-11-4c-1.9,4.1-3.9,9-4.8,11.5
	l11,4C62.3,248.8,64.2,244,65.8,240.5z M135.2,267.5c0.2,5.1,0.6,9.2,1.1,12l11.5,4.1c-0.9-3.7-1.7-8-2.3-12.5L135.2,267.5z"/>
</svg>
