<?xml version="1.0" encoding="utf-8"?>
<!-- Generator: Adobe Illustrator 22.1.0, SVG Export Plug-In . SVG Version: 6.00 Build 0)  -->
<svg version="1.1" id="圖層_1" xmlns="http://www.w3.org/2000/svg" xmlns:xlink="http://www.w3.org/1999/xlink" x="0px" y="0px"
	 viewBox="0 0 480 480" style="enable-background:new 0 0 480 480;" xml:space="preserve">
<style type="text/css">
	.st0{fill:#DBDBDB;}
	.st1{fill:#F4F4F4;}
	.st2{fill:#EBEBEB;}
	.st3{fill:#FFFFFF;}
</style>
<g>
	<path class="st0" d="M380,91.2l-25.5,285.7l-114.6,31.8l-114.3-31.8L100,91.2H380L380,91.2z"/>
	<path class="st1" d="M240,384.4l92.6-25.7l21.8-244.2H240V384.4L240,384.4z"/>
	<path class="st2" d="M190.4,184.6H240v-35h-87.9l0.8,9.4l8.6,96.5H240v-35h-46.4L190.4,184.6L190.4,184.6z M198.3,273.1h-35.1
		l4.9,55l71.8,20h0.1v-36.4h-0.1l-39.1-10.5L198.3,273.1L198.3,273.1z"/>
	<path class="st3" d="M239.9,255.6H283l-4,45.5l-39.1,10.5V348l71.9-19.9l0.6-5.9l8.2-92.3l0.8-9.4H240L239.9,255.6L239.9,255.6z
		 M239.9,184.6L239.9,184.6l84.6,0.1l0.7-7.9l1.7-17.7l0.8-9.4h-87.7V184.6L239.9,184.6z"/>
</g>
</svg>
