<?xml version="1.0" encoding="utf-8"?>
<!-- Generator: Adobe Illustrator 22.1.0, SVG Export Plug-In . SVG Version: 6.00 Build 0)  -->
<svg version="1.1" id="圖層_1" xmlns="http://www.w3.org/2000/svg" xmlns:xlink="http://www.w3.org/1999/xlink" x="0px" y="0px"
	 viewBox="0 0 480 480" style="enable-background:new 0 0 480 480;" xml:space="preserve">
<style type="text/css">
	.st0{fill:#DBDBDB;}
</style>
<path class="st0" d="M393.9,224.7L253.2,85.9c-8.1-8-21.2-7.9-29.2,0.3l-28.7,29.2l37.2,36.5c8.5-3,18.4-1.2,25.2,5.6
	c6.8,6.8,8.9,16.6,6,25.2l35.7,35.3c8.5-3,18.5-1.2,25.3,5.6c9.6,9.5,9.8,25,0.3,34.6c-9.5,9.6-25,9.8-34.6,0.3
	c-7.3-7.1-9.2-17.8-5.5-26.6l-33.6-32.7l0.6,87c2.4,1.2,4.5,2.7,6.5,4.6c9.6,9.5,9.8,25,0.3,34.6c-9.5,9.6-25,9.8-34.6,0.3
	c-9.6-9.5-9.8-25-0.3-34.6c2.4-2.4,5.2-4.3,8-5.3l-0.6-87.8c-2.8-1.2-5.6-2.8-8.1-5.2c-7.3-7.3-9.2-17.9-5.5-26.8l-36.5-36
	l-95.1,96.5c-8,8.1-7.9,21.2,0.3,29.2l140.7,138.6c8.1,8,21.2,7.9,29.2-0.3l138.2-140C402,245.7,402,232.5,393.9,224.7"/>
</svg>
