<?xml version="1.0" encoding="utf-8"?>
<!-- Generator: Adobe Illustrator 22.1.0, SVG Export Plug-In . SVG Version: 6.00 Build 0)  -->
<svg version="1.1" id="圖層_1" xmlns="http://www.w3.org/2000/svg" xmlns:xlink="http://www.w3.org/1999/xlink" x="0px" y="0px"
	 viewBox="0 0 480 480" style="enable-background:new 0 0 480 480;" xml:space="preserve">
<style type="text/css">
	.st0{fill:#DBDBDB;}
	.st1{fill:#FFFFFF;}
</style>
<g>
	<path class="st0" d="M80,80h320v320H80V80z"/>
	<path class="st1" d="M164.1,347.4l24.5-14.8c4.7,8.4,9,15.5,19.4,15.5c9.9,0,16.1-3.9,16.1-18.8V226.9h30.1v102.7
		c0,31.1-18.2,45.3-44.9,45.3C185.2,374.8,171.3,362.5,164.1,347.4 M270.5,344.3L295,330c6.5,10.5,14.8,18.2,29.6,18.2
		c12.5,0,20.4-6.2,20.4-14.8c0-10.2-8.1-14-21.9-20l-7.5-3.3c-21.8-9.2-36.1-20.9-36.1-45.3c0-22.5,17.2-39.7,44-39.7
		c19.1,0,32.9,6.7,42.8,24L342.8,264c-5.2-9.2-10.8-12.9-19.4-12.9c-8.7,0-14.4,5.6-14.4,12.9c0,9,5.6,12.6,18.5,18.2l7.5,3.3
		c25.5,11,40,22.1,40,47.3c0,27.1-21.2,41.9-49.9,41.9C297.3,374.8,279.3,361.6,270.5,344.3"/>
</g>
</svg>
