<?xml version="1.0" encoding="utf-8"?>
<!-- Generator: Adobe Illustrator 22.1.0, SVG Export Plug-In . SVG Version: 6.00 Build 0)  -->
<svg version="1.1" id="圖層_1" xmlns="http://www.w3.org/2000/svg" xmlns:xlink="http://www.w3.org/1999/xlink" x="0px" y="0px"
	 viewBox="0 0 480 480" style="enable-background:new 0 0 480 480;" xml:space="preserve">
<style type="text/css">
	.st0{fill:#DBDBDB;}
	.st1{fill:#FFFFFF;}
</style>
<path class="st0" d="M375.2,285.7c-1.8-5.4-6.6-9.3-12.7-10.2c-2.9-0.5-6.2-0.3-10.1,0.6c-6.8,1.4-11.9,1.9-15.5,2
	c13.9-23.5,25.2-50.3,31.7-75.5c10.6-40.8,5-59.3-1.7-67.7c-17.3-22.2-42.8-34.2-73.4-34.5c-16.3-0.3-30.7,3.1-38.2,5.3
	c-6.9-1.2-14.4-1.9-22.3-2c-14.5-0.3-27.7,2.9-38.8,9.6c-6.1-2.2-16.1-5.1-27.5-6.9c-26.8-4.5-48.6-0.9-64.2,10.2
	c-19.1,13.6-27.9,37.1-26.3,69.9c0.5,10.5,6.4,42.2,15.5,72.3c5.3,17.3,11,31.6,16.7,42.7c8.3,15.7,17.1,24.9,27,28.2
	c5.5,1.9,15.7,3.2,26.3-5.6c1.3,1.7,3.2,3.3,5.5,4.7c3.1,1.9,6.7,3.6,10.5,4.3c13.3,3.3,25.9,2.4,36.4-2.2c0.1,1.9,0.1,3.8,0.1,5.3
	c0.1,2.6,0.1,5.1,0.3,7.3c0.6,15.8,1.7,27.9,4.8,36.4c0.1,0.5,0.4,1.2,0.8,2c1.5,4.8,4.2,12.9,11,19.3c6.9,6.6,15.4,8.5,23.2,8.5
	c3.8,0,7.5-0.5,10.8-1.2c11.5-2.4,24.7-6.2,34-19.8c8.9-12.8,13.3-32,14.1-62.3c0.1-0.8,0.3-1.7,0.3-2.4c0.1-0.5,0.1-1,0.3-1.7
	l2.2,0.3h0.6c11.7,0.6,26.1-2,34.9-6.1C358.2,313.4,380.5,301.5,375.2,285.7"/>
<path class="st1" d="M202.7,195.6c-3.2-0.5-6,0-7.4,1c-0.8,0.6-1,1.3-1.2,1.8c-0.3,1.3,0.8,2.7,1.3,3.6c1.5,2.2,3.8,3.6,6.2,3.8
	c0.4,0,0.8,0.1,0.9,0.1c3.8,0,7.3-2.9,7.6-5.2C210.4,198,206.5,196.2,202.7,195.6 M306.9,195.7L306.9,195.7
	c-0.4-2.2-4.1-2.8-7.8-2.3c-3.7,0.5-7.1,2.2-6.8,4.3c0.3,1.7,3.3,4.6,6.8,4.6c0.4,0,0.6,0,0.9-0.1c2.3-0.4,4.1-1.9,5-2.7
	C306.3,198.3,307.1,196.7,306.9,195.7 M366.7,287.9c-1.3-4-5.6-5.3-12.7-3.8c-21.2,4.3-28.8,1.3-31.2-0.5c16.4-25,30-55.3,37.2-83.5
	c3.4-13.4,5.4-25.9,5.5-35.9c0.1-11.2-1.8-19.3-5.6-24.3c-15.8-20.1-38.9-30.9-66.9-31.2c-19.3-0.3-35.4,4.7-38.6,6.1
	c-6.6-1.7-13.9-2.7-21.8-2.8c-14.4-0.3-26.9,3.2-37.2,10.2c-4.5-1.7-16.1-5.6-30.3-8c-24.5-3.8-44-0.8-57.8,9
	c-16.6,11.7-24.3,32.8-22.8,62.5c0.5,10,6.2,40.8,15.2,70.1c11.9,38.8,24.7,60.7,38.2,65.3c1.5,0.5,3.4,0.9,5.4,0.9
	c5,0,11-2.3,17.3-9.8c10.5-12.6,20.3-23.2,23.8-26.9c5.3,2.8,11.2,4.5,17.2,4.6c0,0.1,0,0.4,0,0.5c-1.2,1.4-2.3,2.7-3.1,3.8
	c-4.1,5.3-5.1,6.4-18.3,9c-3.8,0.8-13.9,2.8-14,9.8c-0.1,7.8,11.9,11,13.3,11.3c4.8,1.2,9.4,1.8,13.8,1.8c10.7,0,20.1-3.6,27.7-10.3
	c-0.3,27.5,0.9,54.5,4.2,62.8c2.7,6.7,9.3,23.3,30.2,23.3c3.1,0,6.5-0.4,10.1-1.2c21.8-4.7,31.2-14.3,34.9-35.4
	c2-11.3,5.3-38.4,6.9-52.9c3.3,1,7.6,1.5,12.2,1.5c9.7,0,20.8-2,27.8-5.3C355.1,304.7,369.4,295.8,366.7,287.9L366.7,287.9z
	 M315,189.8c-0.1,4.2-0.8,8.3-1.3,12.2c-0.8,4.3-1.4,8.9-1.5,14.3c-0.1,5.3,0.5,11,1.2,16.2c1.3,10.8,2.6,21.9-2.6,33
	c-0.8-1.4-1.5-2.9-2.3-4.7c-0.6-1.5-2-4.1-4-7.5c-7.5-13.5-25.1-45-16.1-57.9C291,191.7,297.8,187.7,315,189.8L315,189.8z
	 M294.3,117.3c25,0.6,44.9,10,59,27.8c10.8,13.8-1,76.4-35.3,130.4c-0.4-0.5-0.8-0.8-1-1.3c-0.1-0.3-0.3-0.4-0.5-0.6
	c8.8-14.7,7.1-29.2,5.6-41.9c-0.6-5.3-1.2-10.2-1-14.9c0.1-5,0.8-9.2,1.4-13.3c0.8-5.1,1.5-10.3,1.4-16.4c0.1-0.8,0.3-1.4,0.1-2.3
	c-0.6-5.9-7.3-23.6-21.2-39.8c-7.5-8.8-18.6-18.6-33.6-25.2C275.4,118.2,284.2,117.1,294.3,117.3L294.3,117.3z M154,306.5
	c-6.9,8.3-11.7,6.7-13.3,6.2c-10.2-3.4-22.2-25.1-32.6-59.4c-9.2-29.8-14.4-59.7-14.8-68.2c-1.3-26.5,5.1-45,19.1-54.9
	c22.8-16.2,60.3-6.5,75.3-1.5c-0.3,0.3-0.5,0.5-0.8,0.6c-24.7,24.9-24.1,67.6-24.1,70.2c0,1,0.1,2.4,0.3,4.3
	c0.5,7.1,1.2,20.5-0.9,35.6c-2,14.1,2.3,27.8,11.9,37.7c0.9,1,2,2,3.1,2.9C172.8,284.6,163.7,294.6,154,306.5L154,306.5z
	 M180.4,271.2c-7.6-8-11.2-19.1-9.6-30.6c2.3-15.9,1.4-29.8,0.9-37.4c-0.1-1-0.1-2-0.1-2.7c3.7-3.2,20.3-12.2,32.3-9.4
	c5.4,1.3,8.8,5,10.1,11.3c7.1,33,0.9,46.8-4,57.8c-1,2.3-2,4.5-2.8,6.7l-0.6,1.8c-1.7,4.3-3.2,8.4-4.1,12.2
	C194.3,281,186.4,277.4,180.4,271.2L180.4,271.2z M181.6,315.7c-2.3-0.6-4.5-1.7-5.7-2.4c1-0.5,2.9-1.2,6.1-1.9
	c15.7-3.2,18.1-5.5,23.3-12.2c1.2-1.5,2.6-3.3,4.5-5.4l0,0c2.8-3.2,4.1-2.6,6.5-1.7c1.9,0.8,3.8,3.2,4.5,5.7
	c0.4,1.3,0.8,3.7-0.6,5.4C209.2,318.8,193.2,318.6,181.6,315.7L181.6,315.7z M263.6,392c-19.1,4.1-26-5.6-30.5-16.8
	c-2.9-7.1-4.3-39.8-3.3-75.7c0-0.5,0-0.9-0.3-1.4c-0.1-0.8-0.3-1.7-0.6-2.6c-1.5-5.3-5.2-9.7-9.6-11.4c-1.8-0.8-5-2-8.8-1
	c0.8-3.4,2.3-7.1,3.8-11.3l0.6-1.8c0.8-2,1.7-4,2.6-6.1c5.2-11.5,12.4-27.4,4.6-63.2c-2.9-13.4-12.6-20-27.3-18.5
	c-8.8,0.9-16.8,4.5-20.9,6.5c-0.8,0.5-1.7,0.8-2.3,1.3c1.2-13.5,5.4-38.8,21.2-54.8c10-10.1,23.3-15,39.5-14.8
	c31.9,0.5,52.3,16.9,63.9,30.6c10,11.7,15.3,23.6,17.5,30c-16.2-1.7-27.1,1.5-32.8,9.6c-12.1,17.3,6.6,51,15.7,67.1
	c1.7,2.9,3.1,5.5,3.6,6.6c2.9,7.1,6.7,11.9,9.6,15.3c0.8,1,1.7,2.2,2.3,2.9c-5,1.4-13.6,4.7-12.9,20.9c-0.6,8.3-5.3,46.4-7.5,60
	C288.7,381.4,282.2,388.1,263.6,392L263.6,392z M343.6,300.5c-5.1,2.3-13.4,4.1-21.4,4.5c-8.8,0.5-13.3-0.9-14.3-1.9
	c-0.5-10.1,3.3-11.2,7.3-12.4c0.6-0.3,1.3-0.4,1.9-0.6c0.4,0.4,0.8,0.6,1.2,0.9c7,4.7,19.6,5.2,37.5,1.5c0.1,0,0.1,0,0.3,0
	C353.6,294.7,349.5,297.7,343.6,300.5L343.6,300.5z"/>
</svg>
