<?xml version="1.0" encoding="utf-8"?>
<!-- Generator: Adobe Illustrator 22.1.0, SVG Export Plug-In . SVG Version: 6.00 Build 0)  -->
<svg version="1.1" id="圖層_1" xmlns="http://www.w3.org/2000/svg" xmlns:xlink="http://www.w3.org/1999/xlink" x="0px" y="0px"
	 viewBox="0 0 480 480" style="enable-background:new 0 0 480 480;" xml:space="preserve">
<style type="text/css">
	.st0{fill:#DBDBDB;}
</style>
<path class="st0" d="M414.1,203.2l15.9,0.1c0,0-29.7,40.3-32.1,43.5c-0.8,1.1-2,2.3-2.6,3.6c-1.5,3.6-3.2,11.4-3.2,11.4l-14.6,0.1
	c0,0,2.3-8.1,2.2-12.5c-0.1-3.8-2-7.6-3.2-11.4c-1.1-3.9-2.6-11.4-2.6-11.4h14.9l2.1,8.2L414.1,203.2 M383.9,211.7
	c3,1.8,4.8,11.6,4.8,11.6s-15.4,0.2-23.8,0.2h-7.2l-8.8,38.3h-13.6c0,0,8.3-41.6,10.3-49.1c0.6-2.4,4.4-2,10.8-2h10.1
	C373,210.7,380.6,209.8,383.9,211.7 M321.3,230.4c0,0,0.5-2.4-1.4-5.2c-1.5-2.4-3.1-3-7.1-3.2c-11.7-0.4-11.5,8.2-11.5,8.2
	L321.3,230.4L321.3,230.4z M333.9,220.4c1.7,6.2-1.5,20.7-1.5,20.7s-17.1-0.3-26.3,0c-2.9,0.1-6.4-0.3-7.2,1.1
	c-1.2,1.9,0.5,4.9,1.9,6.1c1.6,1.4,4.8,1.5,5.9,1.7c7.6,1,23.4,0.2,23.4,0.2l-2.8,12.2c0,0-22.4,1.1-33.7-1.5
	c-2.3-0.5-4.3-1.5-5.7-3.2c-0.4-0.5-0.7-1-1.1-1.4c-0.3-0.4-1.1-1.6-1.4-2.7c-2.5-6.9,0.3-19.9,3.2-26.9c0.3-0.8,0.7-1.9,1.2-2.7
	c0.5-1.1,1-2.4,1.4-3c0.3-0.5,0.6-0.7,1-1.2c0.4-0.5,0.7-1,1.1-1.4c1.1-1.2,2.3-2.1,3.6-3.2c4.7-3.5,13.1-6.2,23.3-5.2
	c3.8,0.4,9.6,1.8,12.5,5.7C333.1,216.8,333.5,218.9,333.9,220.4L333.9,220.4L333.9,220.4z M272.1,210.6l13-0.1
	c0,0-7.3,34.5-10.9,51.3h-14.9c-10.5,0-19.8,1.3-23.8-6.2c-3.9-7.3-0.2-19.3,1.5-27.4c1.2-5.7,3.8-17.6,3.8-17.6l13.5-0.2
	c0,0-3.8,18.4-5.4,27.5c-0.6,3.3-1.7,6.4-0.5,8.8c1.2,2.4,2.8,2.4,7.8,2.6c1.5,0,6.7,0,6.7,0L272.1,210.6 M211,235.4
	c1.4-4.9,3.3-10.1,3.2-14.6c-0.3-4.7-4.2-9-6.7-9.9c-7.6-2.7-14.7,1.1-17.6,4.2c-3.6,4-4.9,8.7-6.2,14.9c-1,4.8-1.8,9.8,0,13.5
	c3.2,6.5,12.8,5.2,23.3,5.2C208.5,244.7,209.8,240,211,235.4L211,235.4L211,235.4z M229.2,216.2c1.4,10.8-4.3,22.8-8.2,33.2
	c4,0.4,7.5-0.1,7.8,0.2c0.3,0.4-2.7,12.5-3.7,12.5c-3.2,0.1-13.8,0.2-18.2,0.2c-14.4,0-27.8,1-34.7-6.2c-2.7-2.9-4.7-7.9-5.2-11.4
	c-0.7-5.9,0.2-12.3,1.5-17.6c1.2-4.8,2.8-9.3,5.2-13.5c6-10.5,16.5-18.4,34.1-16.6c3.4,0.4,8.3,1.9,11.4,3.6c0.2,0.2,1,0.7,1.1,0.8
	C224.6,204.2,228.4,210.5,229.2,216.2L229.2,216.2L229.2,216.2z M165.6,210.7c-0.9,4-1.7,8.4-2.7,12.4h-14.6c1.1-4.3,2-8.7,3.2-12.5
	C156.2,210.6,160.6,210.7,165.6,210.7 M148,226.6h14c-1.9,10.1-5.4,26.4-8.2,37.7c-1.8,7.1-3,12.3-7.8,16c-0.5,0.4-0.6,0.2-1.1,0.5
	c-0.9,0.8-5,1.8-7.2,2.1c-3.6,0.4-7.8,0.1-12.4-0.1c1.2-4.3,2.5-9.5,3.6-13.4c11,1.4,11.3-9,13.5-19.2
	C143.5,244.6,147.2,229,148,226.6 M115.3,253l-0.3,0.7c-5.1,10-14.1,16-27.1,16.3c-6.1,0.2-11.8-1.4-15.5-3.2
	c-8.1-3.6-14.9-10.3-18.6-17.6c-5.3-10.3-6.3-24.7,4.8-35.5c0.2,0-1.4,2.4-1.2,2.4l-0.3,1c-8,25.1,16.6,46.6,40.6,44.1
	C103.5,260.7,110.9,257.6,115.3,253 M100.8,242.7c6.1,0.1,12.3-2.7,16-6.7c-3.3,8.2-12.7,13.7-25.3,11.9
	c-10.7-1.4-20.7-12.1-21.7-22.9c-0.7-7.8,1.9-12.5,6.4-18c-1.5,3-2.2,5.2-2.4,6.6C72.2,230.5,87.4,242.5,100.8,242.7 M116.3,221.7
	c-1,2.2-6.3,6.2-8.7,6.7c-9.5,2-15.5-2.4-18.6-7.5c-0.5-0.7-1.4-2.8-1.4-3.3c-1.2-4.2-0.6-10.5,3-13.8c-1.1,3.2-1.3,6.7-0.6,9
	c0.4,1.4,1.4,3.9,2.4,5.4c1.9,2.8,3.2,3.5,5.7,5.1c1.1,0.6,2.4,1.2,2.8,1.4C103.2,225.4,108.2,227.2,116.3,221.7"/>
</svg>
