<svg xmlns="http://www.w3.org/2000/svg" xmlns:xlink="http://www.w3.org/1999/xlink" viewBox="0 0 150 150"><defs><style>.\37 50d52e3-a552-4402-899c-2c794b407521{fill:url(#2e7e5f07-a9c1-4a66-af83-65cb03fd3dec);}.\33 75bff09-c7ec-4d97-885f-c878ec72cbb0{fill:#4f2453;}.b50a74c1-c001-4ed3-8b00-0c3b12b98166{fill:#e51f58;}.c5bd1bcd-8b37-4cfe-9a49-766de8467b29{fill:#b1125b;}.\38 01bf19d-3e22-4d9d-b731-c7887a286c4f{fill:#18112c;}</style><linearGradient id="2e7e5f07-a9c1-4a66-af83-65cb03fd3dec" x1="98.07" y1="53.71" x2="48.74" y2="27.48" gradientUnits="userSpaceOnUse"><stop offset="0" stop-color="#7d2062"/><stop offset="1" stop-color="#e61f58"/></linearGradient></defs><title>team_work</title><g id="5e6adccf-7fe0-4cd2-91b4-16c107d49dda" data-name="FINAL"><g id="c7737367-8d22-4db6-82ec-017bbd9dd996" data-name="team_work"><path class="750d52e3-a552-4402-899c-2c794b407521" d="M75,70.93a4.49,4.49,0,0,1-3.2-1.4l-26.7-29a4.39,4.39,0,0,1-.35-5.49l8.09-11.39a4.35,4.35,0,0,1,.75-.8A4.26,4.26,0,0,1,55.32,22a4.31,4.31,0,0,1,1.08-.15H93.6a4.45,4.45,0,0,1,3.55,1.83l8.11,11.4a4.39,4.39,0,0,1-.36,5.49L78.21,69.52a4.22,4.22,0,0,1-1.8,1.16A4.11,4.11,0,0,1,75,70.93Z"/><path class="375bff09-c7ec-4d97-885f-c878ec72cbb0" d="M114,110.12a1.46,1.46,0,1,1,1.47-1.46A1.46,1.46,0,0,1,114,110.12Zm1.47,10.25v-6.83a1.47,1.47,0,1,0-2.93,0v6.83a1.47,1.47,0,0,0,2.93,0Z"/><path class="b50a74c1-c001-4ed3-8b00-0c3b12b98166" d="M75,120.37a1.46,1.46,0,0,1-1.46-1.47V104.27a1.46,1.46,0,1,1,2.92,0V118.9A1.46,1.46,0,0,1,75,120.37Z"/><path class="c5bd1bcd-8b37-4cfe-9a49-766de8467b29" d="M36,115.49A1.47,1.47,0,0,1,34.51,114v-9.75a1.47,1.47,0,1,1,2.93,0V114A1.47,1.47,0,0,1,36,115.49Zm0,2a1.47,1.47,0,1,0,1.46,1.46A1.46,1.46,0,0,0,36,117.44Z"/><path id="dfe7d1ea-5f00-4962-a76c-1c00b7e6d357" data-name="s-frame" class="801bf19d-3e22-4d9d-b731-c7887a286c4f" d="M123.78,102.8h-2a10.73,10.73,0,0,0,3.43-7.87V91.75A10.81,10.81,0,0,0,114.44,81h-.83a10.82,10.82,0,0,0-10.81,10.8v3.18a10.73,10.73,0,0,0,3.44,7.87h-2a11.24,11.24,0,0,0-9.76,5.7,11.23,11.23,0,0,0-9.75-5.7h-2a10.76,10.76,0,0,0,3.43-7.87V91.75A10.82,10.82,0,0,0,75.42,81h-.84a10.82,10.82,0,0,0-10.8,10.8v3.18a10.76,10.76,0,0,0,3.43,7.87h-2a11.23,11.23,0,0,0-9.75,5.7,11.24,11.24,0,0,0-9.76-5.7h-2a10.73,10.73,0,0,0,3.44-7.87V91.75A10.82,10.82,0,0,0,36.39,81h-.83a10.81,10.81,0,0,0-10.8,10.8v3.18a10.73,10.73,0,0,0,3.43,7.87h-2A11.23,11.23,0,0,0,15,114v21H135V114A11.23,11.23,0,0,0,123.78,102.8Zm-18-7.87V91.75a7.89,7.89,0,0,1,7.88-7.87h.83a7.89,7.89,0,0,1,7.88,7.87v3.18a7.89,7.89,0,0,1-7.88,7.87h-.83A7.89,7.89,0,0,1,105.73,94.93Zm-39,0V91.75a7.88,7.88,0,0,1,7.87-7.87h.84a7.88,7.88,0,0,1,7.87,7.87v3.18a7.88,7.88,0,0,1-7.87,7.87h-.84A7.88,7.88,0,0,1,66.71,94.93Zm-39,0V91.75a7.89,7.89,0,0,1,7.88-7.87h.83a7.89,7.89,0,0,1,7.88,7.87v3.18a7.89,7.89,0,0,1-7.88,7.87h-.83A7.89,7.89,0,0,1,27.68,94.93ZM54,132.07H17.93V114a8.3,8.3,0,0,1,8.29-8.29H45.73A8.3,8.3,0,0,1,54,114Zm39,0H57V114a8.3,8.3,0,0,1,8.29-8.29H84.76A8.3,8.3,0,0,1,93.05,114Zm39,0H96V114a8.3,8.3,0,0,1,8.29-8.29h19.51a8.3,8.3,0,0,1,8.29,8.29Zm-26-97.57L98,23.11a5.08,5.08,0,0,0-.92-1A5.3,5.3,0,0,0,94.93,21a5.4,5.4,0,0,0-1.33-.18H56.4a5.4,5.4,0,0,0-1.33.18A5.3,5.3,0,0,0,53,22.12a5.08,5.08,0,0,0-.92,1L43.93,34.5a5.4,5.4,0,0,0,.43,6.75l25.2,27.32,1.5,1.63a5.39,5.39,0,0,0,7.89,0l26.57-28.82.12-.13A5.4,5.4,0,0,0,106.07,34.5Zm-10.4-9.57,8.17,11.53H88.25Zm-2.74-1.15L85.54,35.27,77.76,23.78ZM82.81,36.46H67.19L75,24.93ZM72.24,23.78,64.46,35.27,57.07,23.78ZM54.33,24.93l7.42,11.53H46.16Zm-7.7,14.46H63.35l8.36,27.2ZM75,67.34,66.41,39.39H83.59Zm3.29-.75,8.36-27.2h16.72ZM29.15,39.39H21.34a1.47,1.47,0,0,1,0-2.93h7.81a1.47,1.47,0,0,1,0,2.93ZM42.41,22.94a1.45,1.45,0,0,1-.94-.34l-6-5a1.46,1.46,0,1,1,1.88-2.24l6,5a1.46,1.46,0,0,1,.18,2.06A1.43,1.43,0,0,1,42.41,22.94Zm65.18,0a1.43,1.43,0,0,1-1.12-.52,1.46,1.46,0,0,1,.18-2.06l6-5a1.46,1.46,0,0,1,1.88,2.24l-6,5A1.45,1.45,0,0,1,107.59,22.94ZM39,68.14A1.46,1.46,0,0,1,38,65.56L47,58a1.47,1.47,0,0,1,1.88,2.25l-9,7.52A1.45,1.45,0,0,1,39,68.14Zm72.1,0a1.45,1.45,0,0,1-.94-.34l-9-7.52A1.47,1.47,0,0,1,103,58l9,7.53a1.46,1.46,0,0,1-.94,2.58ZM37.1,37.93a1.47,1.47,0,1,1-1.46-1.47A1.46,1.46,0,0,1,37.1,37.93Zm92.13,1.46h-7.81a1.47,1.47,0,0,1,0-2.93h7.81a1.47,1.47,0,0,1,0,2.93Zm-14.3-2.93a1.47,1.47,0,1,1-1.46,1.47A1.47,1.47,0,0,1,114.93,36.46Z"/></g></g></svg>