<svg id="icons-top" enable-background="new 0 0 48 48" viewBox="0 0 48 48" width="40" xmlns="http://www.w3.org/2000/svg" xmlns:xlink="http://www.w3.org/1999/xlink"><filter id="top-btn-shadow" height="135%" width="135%" x="-17.5%" y="-12.5%"><feOffset dx="0" dy="2" in="SourceAlpha" result="shadowOffsetOuter1"/><feGaussianBlur in="shadowOffsetOuter1" result="shadowBlurOuter1" stdDeviation="2"/><feColorMatrix in="shadowBlurOuter1" type="matrix" values="0 0 0 0 0.235294118   0 0 0 0 0.290196078   0 0 0 0 0.407843137  0 0 0 0.5 0"/></filter><circle cx="24" cy="22" filter="url(#top-btn-shadow)" r="20"/><circle cx="24" cy="22" fill="#E51F58" r="20"/><path d="m30.8 24.6-.7.7c-.1.1-.2.1-.3.1s-.2-.1-.3-.1l-5.3-5.3-5.2 5.3c-.1.1-.2.1-.3.1s-.2-.1-.3-.1l-.7-.7c-.1-.1-.1-.2-.1-.3s.1-.2.1-.3l6.2-6.2c.1-.1.2-.1.3-.1s.2.1.3.1l6.2 6.2c.1.1.1.2.1.3s0 .2 0 .3z" fill="#fff"/></svg>