<?xml version="1.0" encoding="utf-8"?>
<svg version="1.1" xmlns="http://www.w3.org/2000/svg" xmlns:xlink="http://www.w3.org/1999/xlink" x="0px" y="0px"
	 viewBox="0 0 480 270" style="enable-background:new 0 0 480 270;" xml:space="preserve">
<path fill="#fff" d="M0,233.6v-4.2L229.4,0h4.2L0,233.6z M252.1,0h-4.2L0,247.9v4.2L252.1,0z M242.9,0h-4.2L0,238.6v4.2L242.9,0z
	 M224.3,0h-4.2L0,220.1v4.2L224.3,0z M205.8,0h-4.2L0,201.6v4.2L205.8,0z M215.1,0h-4.2L0,210.8v4.2L215.1,0z M187.3,0h-4.2L0,183.1
	v4.2L187.3,0z M178,0h-4.2L0,173.8v4.2L178,0z M261.4,0h-4.2L0,257.1v4.2L261.4,0z M196.6,0h-4.2L0,192.3v4.2L196.6,0z M279.9,0
	h-4.2L5.7,270h4.2L279.9,0z M335.5,0h-4.2l-270,270h4.2L335.5,0z M344.7,0h-4.2l-270,270h4.2L344.7,0z M363.2,0H359L89,270h4.2
	L363.2,0z M354,0h-4.2l-270,270H84L354,0z M298.4,0h-4.2l-270,270h4.2L298.4,0z M326.2,0H322L52,270h4.2L326.2,0z M289.2,0h-4.2
	l-270,270h4.2L289.2,0z M316.9,0h-4.2l-270,270h4.2L316.9,0z M76.2,0H72L0,72v4.2L76.2,0z M29.9,0h-4.2L0,25.7v4.2L29.9,0z M39.2,0
	h-4.2L0,34.9v4.2L39.2,0z M48.4,0h-4.2L0,44.2v4.2L48.4,0z M57.7,0h-4.2L0,53.4v4.2L57.7,0z M372.5,0h-4.2l-270,270h4.2L372.5,0z
	 M66.9,0h-4.2L0,62.7v4.2L66.9,0z M266.4,0L0,266.4v3.6h0.6l270-270H266.4z M11.4,0H7.1L0,7.1v4.2L11.4,0z M20.6,0h-4.2L0,16.4v4.2
	L20.6,0z M0,2.1L2.1,0H0V2.1z M94.7,0h-4.2L0,90.5v4.2L94.7,0z M150.3,0H146L0,146v4.2L150.3,0z M131.8,0h-4.2L0,127.5v4.2L131.8,0z
	 M141,0h-4.2L0,136.8v4.2L141,0z M159.5,0h-4.2L0,155.3v4.2L159.5,0z M104,0h-4.2L0,99.7v4.2L104,0z M122.5,0h-4.2L0,118.2v4.2
	L122.5,0z M85.5,0h-4.2L0,81.2v4.2L85.5,0z M168.8,0h-4.2L0,164.5v4.2L168.8,0z M113.2,0H109L0,109v4.2L113.2,0z M307.7,0h-4.2
	l-270,270h4.2L307.7,0z M480,96.2V92L302,270h4.2L480,96.2z M480,151.8v-4.2L357.5,270h4.2L480,151.8z M480,170.3V166L376,270h4.2
	L480,170.3z M480,179.5v-4.2L385.3,270h4.2L480,179.5z M480,142.5v-4.2L348.2,270h4.2L480,142.5z M480,105.5v-4.2L311.2,270h4.2
	L480,105.5z M480,188.8v-4.2L394.5,270h4.2L480,188.8z M480,114.7v-4.2L320.5,270h4.2L480,114.7z M480,124v-4.2L329.7,270h4.2
	L480,124z M480,133.2V129L339,270h4.2L480,133.2z M480,161v-4.2L366.8,270h4.2L480,161z M480,244.3v-4.2L450.1,270h4.2L480,244.3z
	 M480,253.6v-4.2L459.4,270h4.2L480,253.6z M480,198v-4.2L403.8,270h4.2L480,198z M480,267.9l-2.1,2.1h2.1V267.9z M480,262.9v-4.2
	L468.6,270h4.2L480,262.9z M480,216.6v-4.2L422.3,270h4.2L480,216.6z M480,207.3v-4.2L413.1,270h4.2L480,207.3z M480,235.1v-4.2
	L440.8,270h4.2L480,235.1z M480,225.8v-4.2L431.6,270h4.2L480,225.8z M480,12.9V8.6L218.6,270h4.2L480,12.9z M446.6,0h-4.2l-270,270
	h4.2L446.6,0z M437.3,0h-4.2l-270,270h4.2L437.3,0z M428,0h-4.2l-270,270h4.2L428,0z M465.1,0h-4.2l-270,270h4.2L465.1,0z M455.8,0
	h-4.2l-270,270h4.2L455.8,0z M480,86.9v-4.2L292.7,270h4.2L480,86.9z M474.3,0h-4.2l-270,270h4.2L474.3,0z M418.8,0h-4.2l-270,270
	h4.2L418.8,0z M400.3,0H396L126,270h4.2L400.3,0z M409.5,0h-4.2l-270,270h4.2L409.5,0z M391,0h-4.2l-270,270h4.2L391,0z M480,49.9
	v-4.2L255.7,270h4.2L480,49.9z M480,68.4v-4.2L274.2,270h4.2L480,68.4z M480,59.2v-4.2L264.9,270h4.2L480,59.2z M480,77.7v-4.2
	L283.4,270h4.2L480,77.7z M480,31.4v-4.2L237.1,270h4.2L480,31.4z M381.8,0h-4.2l-270,270h4.2L381.8,0z M480,22.1v-4.2L227.9,270
	h4.2L480,22.1z M480,3.6V0h-0.6l-270,270h4.2L480,3.6z M480,40.6v-4.2L246.4,270h4.2L480,40.6z"/>
</svg>
