<?xml version="1.0" encoding="utf-8"?>
<svg version="1.1" id="logo_5xruby_tw" xmlns="http://www.w3.org/2000/svg" xmlns:xlink="http://www.w3.org/1999/xlink" x="0px" y="0px"
	 viewBox="0 0 400 130" style="enable-background:new 0 0 400 130;" xml:space="preserve">
<style type="text/css">
	.logo-color{fill:#E51A3C;}
</style>
<path class="logo-color" d="M46.8,76.9c0,4.8-1.6,8.6-4.9,11.3c-3.2,2.7-7.7,4.1-13.5,4.1c-2.5,0-5.3-0.3-8.5-1v-5.9c3.3,1.3,6.4,2,9.3,2
	c3.2,0,5.8-1,7.7-2.9c1.9-1.9,2.8-4.6,2.8-7.9c0-7.4-5.1-11.1-15.3-11.1c-1.2,0-2.4,0.1-3.6,0.2V41.6h25v5.7H26.6v13
	c6.3,0,11.3,1.5,14.8,4.4C45,67.6,46.8,71.7,46.8,76.9z M84.1,55.8h-6.9l-4.5,6l-4.4-6h-7.1L69,66.6l-8.1,10.9h6.8l4.7-6.2l4.5,6.2
	h7.2l-8-10.9L84.1,55.8z M111.1,26.6c-7.4,0-11.1,4.3-11.1,12.9v16.4c0,3.5-1.2,5.5-3.7,6c-0.5,0.1-0.8,0.3-1.1,0.6v7.1l0.4,0.1
	c0.1,0,0.2,0,0.3,0.1c0.1,0,0.2,0.1,0.3,0.1c1.4,0.3,2.3,1,2.9,1.9c0.5,0.9,0.8,2.4,0.8,4.5v15.4c0,4.9,0.9,8.4,2.8,10.7
	c1.8,2.3,4.7,3.4,8.7,3.3h2.7v-7h-1.4h-0.7c-1.9,0-3.1-0.3-3.7-1c-0.5-0.6-0.8-2.1-0.8-4.4l-0.1-1.8V76.1c0-2.4-0.3-4.2-0.8-5.6
	c-0.5-1.3-1.5-2.8-3-4.2c0.7-0.6,1.2-1.2,1.7-1.8s0.9-1.3,1.2-2.1s0.5-1.6,0.6-2.6c0.1-1,0.2-2,0.2-3.3V40.9c0-3,0.2-5,0.7-5.8
	c0.5-0.8,1.8-1.2,3.7-1.2h2.2V27c-0.3-0.2-0.8-0.4-1.4-0.4L111.1,26.6z M281.5,69.9h9.3v-9.3h-9.3V69.9z M315.7,43.2l-6.6,0.6v6.6
	h-4.5v4.9h4.5v21.3c0,3.4,0.9,6.1,2.8,8c1.9,1.9,4.5,2.9,7.8,2.9c1.5,0,3.2-0.3,5.3-0.8v-4.5c-1.2,0.3-2.3,0.4-3.2,0.4
	c-4.1,0-6.1-2.4-6.1-7.1V55.3h9.5v-4.9h-9.5V43.2z M374.4,50.4l-9.1,28.1l-7.5-28.1h-6.6l-8.6,28.1l-7.9-28.1h-6.4l10.4,36.3h6.6
	l8.7-28.1l7.7,28.1h6.6L380,50.4H374.4z M272.2,62.6c-0.1,0-0.2-0.1-0.3-0.1c-1.4-0.3-2.4-1-2.9-1.9c-0.5-0.9-0.8-2.4-0.8-4.5V40.6
	c0-4.9-0.9-8.4-2.8-10.7c-1.8-2.3-4.7-3.4-8.7-3.3H254v7h1.4h0.7c1.9,0,3.1,0.3,3.6,1c0.5,0.6,0.8,2.1,0.8,4.4l0.1,1.8v15.4
	c0,2.2,0.2,4.1,0.7,5.6c0.6,1.3,1.6,2.8,3,4.3c-1.4,1.2-2.4,2.5-2.9,3.9c-0.5,1.3-0.8,3.2-0.8,5.8v15.6c0,3.1-0.3,5-0.8,5.8
	c-0.5,0.8-1.8,1.2-3.7,1.2H254v6.9c0.3,0.2,0.8,0.4,1.3,0.4l1.7,0c7.4,0,11.1-4.3,11.1-12.9V76.5c0-3.5,1.2-5.6,3.7-6
	c0.5-0.1,0.8-0.3,1.1-0.6v-7.1l-0.4-0.1C272.4,62.6,272.3,62.6,272.2,62.6z M185.8,69.1V114l29.9-49.2L185.8,69.1z M186.6,65.9
	l29.3-4.2l-18.9-25.2L186.6,65.9z M220.5,60.8l25.1-6.3l-20.9-27.2L220.5,60.8z M221.8,25.8L199,34l18.6,24.9L221.8,25.8z
	 M125.4,58.3l51,51.1L149,64.2L125.4,58.3z M182.8,114V69.1l-29.9-4.3L182.8,114z M192.2,109.4l51-51.1l-23.5,5.9L192.2,109.4z
	 M196.3,31.8l22-8c-6.6-1.5-19.3-3.8-34.1-3.8s-27.5,2.3-34.1,3.8l22,8H196.3z M174.2,34.8l10.1,28.4l10.1-28.4H174.2z M182,65.9
	l-10.5-29.4l-18.9,25.2L182,65.9z M144,27.3l-20.9,27.2l25.1,6.3L144,27.3z M169.6,34l-22.7-8.3l4.1,33.2L169.6,34z"/>
</svg>
