<?xml version="1.0" standalone="no"?>
<!DOCTYPE svg PUBLIC "-//W3C//DTD SVG 20010904//EN"
 "http://www.w3.org/TR/2001/REC-SVG-20010904/DTD/svg10.dtd">
<svg version="1.0" xmlns="http://www.w3.org/2000/svg"
 width="414.000000pt" height="414.000000pt" viewBox="0 0 414.000000 414.000000"
 preserveAspectRatio="xMidYMid meet">
<metadata>
Created by potrace 1.11, written by Peter Selinger 2001-2013
</metadata>
<g transform="translate(0.000000,414.000000) scale(0.100000,-0.100000)"
fill="#000000" stroke="none">
<path d="M1999 4069 c-372 -241 -674 -671 -794 -1135 -26 -99 -30 -118 -40
-189 -4 -22 -8 -47 -10 -55 -10 -38 -18 -177 -18 -300 0 -146 9 -250 32 -374
l9 -48 -49 -52 c-96 -103 -149 -178 -143 -206 7 -31 143 -479 290 -956 44
-143 50 -146 146 -58 87 80 137 115 230 159 76 37 92 34 83 -13 -2 -11 2 -28
9 -37 12 -16 41 -18 325 -17 212 0 316 3 324 11 6 6 11 29 11 51 0 36 2 39 21
34 85 -27 242 -131 312 -208 41 -45 68 -52 91 -22 8 10 54 154 132 416 16 52
67 220 114 374 70 230 83 282 74 300 -13 24 -124 162 -162 199 -17 17 -24 33
-21 49 5 21 7 35 20 113 18 110 24 355 12 480 -9 85 -36 255 -42 265 -3 4 -7
25 -11 46 -16 103 -121 374 -198 509 -44 80 -137 221 -163 250 -10 11 -30 36
-44 55 -82 110 -375 363 -450 389 -24 8 -36 4 -90 -30z m394 -1060 c31 -44 57
-83 57 -87 0 -4 -27 -36 -61 -72 -228 -244 -312 -330 -322 -330 -7 0 -32 22
-57 49 -25 27 -103 111 -175 187 -71 75 -135 144 -141 153 -10 13 -1 31 48 99
l60 82 267 0 266 -1 58 -80z"/>
<path d="M2033 689 c-59 -11 -96 -32 -136 -79 -73 -86 -71 -168 9 -318 32 -59
71 -132 87 -162 36 -68 55 -90 77 -90 24 0 36 17 103 139 107 196 122 231 120
292 -2 139 -125 242 -260 218z"/>
</g>
</svg>
